<?xml version="1.0" standalone="no"?>
<!DOCTYPE svg PUBLIC "-//W3C//DTD SVG 20010904//EN"
 "http://www.w3.org/TR/2001/REC-SVG-20010904/DTD/svg10.dtd">
<svg version="1.0" xmlns="http://www.w3.org/2000/svg"
 width="939.000000pt" height="680.000000pt" viewBox="0 0 939.000000 680.000000"
 preserveAspectRatio="xMidYMid meet">

<g transform="translate(0.000000,680.000000) scale(0.100000,-0.100000)"
fill="#000000" stroke="none">
<path d="M5468 6723 c7 -3 16 -2 19 1 4 3 -2 6 -13 5 -11 0 -14 -3 -6 -6z"/>
<path d="M9087 6711 c17 -11 36 -28 42 -38 6 -10 11 -13 11 -6 0 14 -57 63
-73 63 -7 0 2 -9 20 -19z"/>
<path d="M3037 6693 c-12 -12 -8 -178 5 -191 9 -9 99 -12 345 -12 318 0 333 1
343 19 14 27 13 164 -2 179 -9 9 -100 12 -348 12 -185 0 -340 -3 -343 -7z
m691 -78 c2 -38 0 -80 -3 -92 l-5 -23 -338 2 -337 3 -3 79 c-2 44 -1 85 2 93
5 11 67 13 343 11 l338 -3 3 -70z"/>
<path d="M3260 6601 c0 -28 5 -51 10 -51 6 0 10 9 10 20 0 11 4 20 9 20 5 0
13 -9 16 -20 11 -35 21 -22 20 28 0 46 -1 47 -32 50 l-33 3 0 -50z m50 19 c0
-11 -7 -20 -15 -20 -8 0 -15 9 -15 20 0 11 7 20 15 20 8 0 15 -9 15 -20z"/>
<path d="M3350 6600 c0 -27 5 -50 10 -50 6 0 10 9 10 19 0 12 8 21 23 24 l22
4 -22 2 c-35 2 -31 39 5 44 22 3 20 4 -10 6 l-38 1 0 -50z"/>
<path d="M3440 6600 c0 -27 5 -50 10 -50 6 0 10 9 10 19 0 12 8 21 23 24 l22
4 -22 2 c-35 2 -31 39 5 44 22 3 20 4 -10 6 l-38 1 0 -50z"/>
<path d="M7253 6693 c-7 -2 -10 -10 -7 -16 2 -7 -6 -17 -18 -22 -30 -13 -32
-59 -3 -62 11 -2 14 0 8 3 -19 8 -16 54 2 54 10 0 15 -10 15 -30 0 -18 5 -30
13 -30 9 0 12 13 9 43 -4 61 -6 64 -19 60z"/>
<path d="M2152 6678 c-26 -26 -6 -69 33 -67 18 0 18 1 -3 10 -32 12 -27 54 6
53 12 0 22 3 22 8 0 12 -44 10 -58 -4z"/>
<path d="M2220 6678 c0 -7 11 -13 25 -13 14 0 27 6 30 13 3 8 -6 12 -25 12
-17 0 -30 -5 -30 -12z"/>
<path d="M4405 6650 c0 -31 4 -40 17 -40 11 0 15 6 11 20 -3 13 0 20 8 20 11
0 11 2 -1 10 -8 5 -11 12 -8 15 4 4 12 3 19 -1 20 -12 59 -11 59 2 0 8 -19 12
-52 13 l-53 0 0 -39z"/>
<path d="M6978 6684 c6 -3 12 -23 12 -44 0 -21 -6 -41 -12 -43 -7 -3 1 -5 17
-5 17 0 24 2 18 5 -19 7 -17 83 2 83 18 0 20 -26 3 -34 -7 -3 -4 -5 7 -3 12 1
20 10 20 22 0 16 -7 20 -40 22 -22 1 -34 0 -27 -3z"/>
<path d="M7418 6669 c-6 -18 3 -79 12 -79 4 0 5 12 2 26 -2 14 0 29 6 33 6 4
5 10 -3 18 -9 9 -15 9 -17 2z"/>
<path d="M547 6663 c18 -2 50 -2 70 0 21 2 7 4 -32 4 -38 0 -55 -2 -38 -4z"/>
<path d="M808 6663 c29 -2 74 -2 100 0 26 2 2 3 -53 3 -55 0 -76 -1 -47 -3z"/>
<path d="M1108 6663 c29 -2 74 -2 100 0 26 2 2 3 -53 3 -55 0 -76 -1 -47 -3z"/>
<path d="M1408 6663 c29 -2 74 -2 100 0 26 2 2 3 -53 3 -55 0 -76 -1 -47 -3z"/>
<path d="M1686 6659 c39 -11 70 -45 82 -89 6 -19 11 -27 11 -17 3 53 -58 119
-106 116 -10 0 -4 -5 13 -10z"/>
<path d="M479 6643 c-13 -15 -12 -15 9 -4 23 12 28 21 13 21 -5 0 -15 -7 -22
-17z"/>
<path d="M7085 6651 c-26 -8 -29 -61 -4 -61 12 0 16 6 12 21 -4 12 0 25 8 29
18 12 9 18 -16 11z"/>
<path d="M7160 6653 c5 -2 10 -9 10 -14 0 -14 -28 -11 -34 4 -3 6 -4 -1 -3
-18 2 -24 7 -30 27 -32 l25 -3 -25 12 -25 11 23 5 c24 4 28 33 4 38 -7 1 -8 0
-2 -3z"/>
<path d="M7305 6652 c-17 -12 -13 -62 5 -62 12 0 15 8 12 35 -2 19 -5 35 -6
35 0 0 -5 -4 -11 -8z"/>
<path d="M7523 6653 c-18 -7 -16 -50 3 -57 25 -10 33 -7 44 15 18 33 -10 58
-47 42z m35 -31 c2 -15 -2 -22 -12 -22 -11 0 -16 9 -16 26 0 31 23 28 28 -4z"/>
<path d="M7605 6652 c-17 -12 -13 -62 5 -62 12 0 15 8 12 35 -2 19 -5 35 -6
35 0 0 -5 -4 -11 -8z"/>
<path d="M7639 6647 c7 -9 11 -26 8 -37 -3 -12 0 -20 8 -20 18 0 4 62 -15 68
-13 5 -13 3 -1 -11z"/>
<path d="M2240 6630 c-6 -11 -7 -20 -2 -20 6 0 12 9 15 20 3 11 3 20 1 20 -2
0 -8 -9 -14 -20z"/>
<path d="M4480 6630 c-6 -11 -7 -20 -2 -20 6 0 12 9 15 20 3 11 3 20 1 20 -2
0 -8 -9 -14 -20z"/>
<path d="M7345 6637 c-9 -20 10 -47 33 -47 14 0 14 1 0 13 -9 6 -18 21 -21 32
-4 18 -5 19 -12 2z"/>
<path d="M7465 6620 c0 -24 4 -30 20 -29 11 0 14 3 8 6 -7 2 -13 16 -13 29 0
13 -3 24 -7 24 -5 0 -8 -13 -8 -30z"/>
<path d="M9143 6610 c0 -25 2 -35 4 -22 2 12 2 32 0 45 -2 12 -4 2 -4 -23z"/>
<path d="M5960 6600 c0 -22 5 -40 10 -40 6 0 10 7 10 15 0 8 5 15 10 15 6 0
10 -7 10 -15 0 -8 5 -15 10 -15 6 0 10 18 10 40 0 22 -4 40 -10 40 -5 0 -10
-9 -10 -20 0 -11 -4 -20 -10 -20 -5 0 -10 9 -10 20 0 11 -4 20 -10 20 -5 0
-10 -18 -10 -40z"/>
<path d="M6200 6631 c0 -5 -9 -11 -21 -14 -32 -9 -22 -51 14 -55 26 -3 27 -1
27 37 0 23 -4 41 -10 41 -5 0 -10 -4 -10 -9z m0 -41 c0 -11 -4 -20 -10 -20 -5
0 -10 9 -10 20 0 11 5 20 10 20 6 0 10 -9 10 -20z"/>
<path d="M4040 6615 c0 -13 -21 -15 -140 -15 -87 0 -140 -4 -140 -10 0 -6 54
-10 141 -10 136 0 141 -1 136 -20 -5 -19 -4 -19 37 2 22 11 43 22 44 24 2 1
-14 12 -37 24 -34 17 -41 18 -41 5z"/>
<path d="M5381 6613 l-1 -23 -340 0 c-220 0 -340 -4 -340 -10 0 -6 120 -10
340 -10 l339 0 4 -57 3 -58 2 58 2 57 130 0 c110 0 130 -2 130 -15 0 -13 6
-12 40 5 22 11 40 22 40 25 0 3 -18 14 -40 25 l-40 20 0 -20 c0 -19 -6 -20
-129 -20 -126 0 -130 1 -134 23 l-4 22 -2 -22z"/>
<path d="M2933 6606 c6 -14 -21 -16 -248 -16 -163 0 -255 -4 -255 -10 0 -6 92
-10 255 -10 222 0 254 -2 249 -15 -4 -8 -4 -15 0 -15 13 0 76 34 76 42 0 4 -2
8 -4 8 -2 0 -20 7 -41 16 -34 14 -37 14 -32 0z"/>
<path d="M6034 6606 c-10 -25 3 -46 28 -45 22 0 22 1 3 9 -18 8 -18 9 -2 9 12
1 17 7 15 18 -4 23 -36 29 -44 9z m31 -6 c3 -5 -1 -10 -10 -10 -9 0 -13 5 -10
10 3 6 8 10 10 10 2 0 7 -4 10 -10z"/>
<path d="M6113 6613 c18 -5 17 -6 -2 -20 -12 -8 -19 -19 -16 -24 10 -15 55
-11 55 5 0 29 -13 46 -34 45 -18 -1 -18 -2 -3 -6z"/>
<path d="M444 6435 c0 -55 1 -76 3 -47 2 29 2 74 0 100 -2 26 -3 2 -3 -53z"/>
<path d="M850 6465 c-17 -20 -8 -50 15 -51 15 -1 16 0 3 3 -10 3 -18 13 -18
23 0 11 8 24 18 29 9 6 12 11 6 11 -6 0 -17 -7 -24 -15z"/>
<path d="M1244 6466 c-9 -24 0 -59 16 -63 12 -4 13 -3 1 5 -8 6 -12 21 -9 41
5 33 1 41 -8 17z"/>
<path d="M1526 6467 c4 -11 0 -25 -11 -37 -18 -19 -17 -20 6 -19 13 0 19 3 12
6 -10 3 -10 9 0 23 9 15 9 22 -1 32 -11 11 -12 10 -6 -5z"/>
<path d="M1626 6464 c-9 -8 -16 -22 -16 -30 0 -20 29 -29 43 -15 9 10 8 15 -5
25 -13 10 -15 15 -6 24 7 7 9 12 6 12 -4 0 -14 -7 -22 -16z m24 -34 c0 -5 -7
-10 -15 -10 -8 0 -15 5 -15 10 0 6 7 10 15 10 8 0 15 -4 15 -10z"/>
<path d="M1685 6470 c3 -5 8 -10 11 -10 2 0 4 5 4 10 0 6 -5 10 -11 10 -5 0
-7 -4 -4 -10z"/>
<path d="M3343 6436 c-21 -42 -21 -44 -2 -39 18 5 19 -1 19 -96 0 -61 4 -101
10 -101 6 0 10 40 10 100 0 83 3 100 15 100 13 0 12 6 -5 40 -11 22 -22 40
-23 40 -2 0 -13 -20 -24 -44z"/>
<path d="M1075 6440 c0 -16 5 -30 11 -30 6 0 9 13 6 30 -2 17 -7 30 -11 30 -3
0 -6 -13 -6 -30z"/>
<path d="M1185 6440 c0 -16 5 -30 11 -30 6 0 9 13 6 30 -2 17 -7 30 -11 30 -3
0 -6 -13 -6 -30z"/>
<path d="M1281 6448 c-1 -29 14 -46 22 -26 4 10 6 10 6 0 1 -7 6 -10 11 -7 6
3 9 18 9 33 -1 20 -3 22 -6 8 -4 -15 -7 -16 -14 -5 -7 12 -9 12 -10 -1 0 -10
-3 -8 -9 5 -8 18 -9 17 -9 -7z"/>
<path d="M1391 6440 c1 -19 3 -27 6 -17 2 9 12 17 21 18 14 0 14 2 2 6 -8 3
-18 11 -22 17 -4 6 -7 -5 -7 -24z"/>
<path d="M1560 6455 c0 -8 7 -15 15 -15 8 0 15 -5 15 -11 0 -6 -7 -8 -16 -5
-8 3 -12 2 -9 -4 11 -18 35 -11 35 10 0 11 -7 20 -16 20 -8 0 -12 5 -9 10 3 6
1 10 -4 10 -6 0 -11 -7 -11 -15z"/>
<path d="M2137 6435 c-21 -43 -21 -46 -2 -39 11 5 15 -9 18 -73 l3 -78 2 79
c2 73 3 78 22 73 19 -5 19 -5 -1 34 -10 21 -21 39 -22 39 -2 0 -11 -16 -20
-35z"/>
<path d="M904 6446 c-7 -19 3 -36 22 -36 10 0 14 8 12 22 -4 26 -26 36 -34 14z
m26 -11 c0 -8 -4 -15 -10 -15 -5 0 -10 7 -10 15 0 8 5 15 10 15 6 0 10 -7 10
-15z"/>
<path d="M960 6449 c0 -5 4 -8 9 -4 5 3 12 -5 14 -17 4 -20 4 -19 6 5 1 18 -4
27 -14 27 -8 0 -15 -5 -15 -11z"/>
<path d="M1040 6447 c0 -9 -4 -17 -10 -17 -5 0 -10 -4 -10 -10 0 -5 4 -10 9
-10 12 0 25 39 17 47 -3 4 -6 -1 -6 -10z"/>
<path d="M1124 6440 c0 -9 7 -16 16 -16 9 0 16 7 16 16 0 9 -7 16 -16 16 -9 0
-16 -7 -16 -16z"/>
<path d="M1344 6440 c0 -9 7 -16 16 -16 9 0 16 7 16 16 0 9 -7 16 -16 16 -9 0
-16 -7 -16 -16z"/>
<path d="M1454 6440 c0 -9 7 -16 16 -16 9 0 16 7 16 16 0 9 -7 16 -16 16 -9 0
-16 -7 -16 -16z"/>
<path d="M9144 6365 c0 -55 1 -76 3 -47 2 29 2 74 0 100 -2 26 -3 2 -3 -53z"/>
<path d="M8030 6235 l0 -205 30 0 30 0 0 205 0 205 -30 0 -30 0 0 -205z m50 0
c0 -188 -1 -195 -20 -195 -19 0 -20 7 -20 195 0 188 1 195 20 195 19 0 20 -7
20 -195z"/>
<path d="M1774 6335 c0 -55 1 -76 3 -47 2 29 2 74 0 100 -2 26 -3 2 -3 -53z"/>
<path d="M1680 6410 c-9 -6 -10 -10 -3 -10 6 0 15 5 18 10 8 12 4 12 -15 0z"/>
<path d="M5384 6255 c0 -55 1 -76 3 -47 2 29 2 74 0 100 -2 26 -3 2 -3 -53z"/>
<path d="M8190 6325 c-17 -20 -8 -50 15 -51 15 -1 16 0 3 3 -10 3 -18 13 -18
23 0 11 8 24 18 29 9 6 12 11 6 11 -6 0 -17 -7 -24 -15z"/>
<path d="M8248 6305 c3 -25 9 -35 21 -34 10 0 11 2 4 6 -7 2 -13 18 -13 34 0
16 -4 29 -8 29 -4 0 -6 -16 -4 -35z"/>
<path d="M8530 6330 c0 -5 7 -7 15 -4 8 4 15 8 15 10 0 2 -7 4 -15 4 -8 0 -15
-4 -15 -10z"/>
<path d="M8736 6322 c-7 -12 13 -52 26 -51 10 0 10 2 1 6 -16 6 -17 30 -1 35
8 3 6 7 -5 11 -9 3 -18 3 -21 -1z"/>
<path d="M8308 6312 c11 -7 11 -10 -3 -16 -21 -8 -10 -26 15 -26 16 0 18 4 11
22 -4 12 -14 24 -22 26 -11 3 -12 2 -1 -6z"/>
<path d="M8350 6310 c0 -6 8 -14 17 -17 15 -6 15 -7 -3 -14 -16 -6 -16 -8 -2
-8 24 -1 33 18 12 26 -16 6 -16 7 2 14 17 7 17 8 -3 8 -13 1 -23 -4 -23 -9z"/>
<path d="M8410 6305 c0 -8 6 -15 13 -15 8 0 7 -4 -3 -10 -13 -8 -12 -10 3 -10
9 0 17 7 17 15 0 8 -6 15 -12 15 -9 0 -8 4 2 10 13 8 12 10 -2 10 -10 0 -18
-7 -18 -15z"/>
<path d="M8470 6313 c14 -7 13 -30 -2 -36 -7 -3 -3 -6 9 -6 19 -1 21 2 14 21
-4 12 -13 23 -20 24 -6 1 -7 0 -1 -3z"/>
<path d="M8580 6313 c14 -7 13 -30 -2 -36 -7 -3 -3 -6 9 -6 19 -1 21 2 14 21
-4 12 -13 23 -20 24 -6 1 -7 0 -1 -3z"/>
<path d="M8628 6308 c-8 -20 2 -38 20 -38 13 0 13 2 -3 14 -18 13 -18 13 1 24
16 10 16 11 3 12 -9 0 -19 -6 -21 -12z"/>
<path d="M8689 6311 c11 -7 11 -9 0 -14 -11 -4 -11 -6 1 -6 13 -1 13 -2 0 -11
-12 -8 -11 -10 6 -10 17 0 20 5 16 25 -2 15 -11 25 -21 25 -13 0 -13 -2 -2 -9z"/>
<path d="M8800 6313 c14 -7 13 -30 -2 -36 -7 -3 -3 -6 9 -6 19 -1 21 2 14 21
-4 12 -13 23 -20 24 -6 1 -7 0 -1 -3z"/>
<path d="M8846 6304 c-8 -21 1 -34 22 -33 15 1 15 2 0 6 -19 5 -23 15 -11 26
3 4 12 2 20 -5 11 -8 12 -7 7 6 -8 21 -30 21 -38 0z"/>
<path d="M8901 6293 c1 -23 2 -24 6 -5 2 12 8 22 13 22 5 0 11 -10 13 -22 5
-20 5 -20 4 2 -1 15 -9 26 -19 28 -14 3 -18 -3 -17 -25z"/>
<path d="M8518 6303 c6 -2 18 -2 25 0 6 3 1 5 -13 5 -14 0 -19 -2 -12 -5z"/>
<path d="M7375 6280 c-3 -6 1 -7 9 -4 21 8 20 -14 -1 -38 -15 -17 -15 -18 8
-17 13 0 18 3 11 6 -10 4 -10 8 -1 19 12 15 6 44 -10 44 -5 0 -13 -4 -16 -10z"/>
<path d="M7151 6250 c1 -19 3 -27 6 -17 2 9 8 17 13 17 5 0 11 -8 13 -17 3
-10 5 -2 6 17 0 26 -2 31 -9 20 -9 -13 -11 -13 -20 0 -7 11 -9 6 -9 -20z"/>
<path d="M7261 6253 c-1 -26 3 -31 19 -30 22 1 25 14 10 37 -9 13 -10 13 -11
0 0 -10 -3 -8 -9 5 -7 17 -9 15 -9 -12z"/>
<path d="M7430 6265 c0 -8 7 -15 15 -15 8 0 15 -5 15 -11 0 -6 -9 -9 -20 -6
-11 3 -18 1 -14 -4 3 -5 11 -9 19 -9 25 0 28 21 6 41 -17 16 -21 17 -21 4z"/>
<path d="M7484 6265 c-9 -21 3 -45 21 -45 8 0 15 9 15 20 0 11 -7 20 -16 20
-8 0 -12 5 -9 10 3 6 4 10 0 10 -3 0 -8 -7 -11 -15z m26 -25 c0 -5 -4 -10 -10
-10 -5 0 -10 5 -10 10 0 6 5 10 10 10 6 0 10 -4 10 -10z"/>
<path d="M7223 6263 c-17 -6 -17 -20 0 -26 8 -3 13 3 13 14 0 11 0 19 -1 18 0
0 -6 -3 -12 -6z"/>
<path d="M7333 6263 c-17 -6 -17 -20 0 -26 8 -3 13 3 13 14 0 11 0 19 -1 18 0
0 -6 -3 -12 -6z"/>
<path d="M444 6135 c0 -55 1 -76 3 -47 2 29 2 74 0 100 -2 26 -3 2 -3 -53z"/>
<path d="M8662 6221 c-21 -13 -11 -55 13 -58 16 -1 16 -1 3 3 -21 6 -24 34 -6
52 14 14 9 15 -10 3z"/>
<path d="M8431 6190 c1 -19 3 -27 6 -17 2 9 8 17 13 17 5 0 11 -8 13 -17 3
-10 5 -2 6 17 0 26 -2 31 -9 20 -9 -13 -11 -13 -20 0 -7 11 -9 6 -9 -20z"/>
<path d="M8541 6193 c-1 -26 3 -31 19 -30 22 1 25 14 10 37 -9 13 -10 13 -11
0 0 -10 -3 -8 -9 5 -7 17 -9 15 -9 -12z"/>
<path d="M8494 6190 c0 -10 6 -16 13 -13 7 3 13 9 13 13 0 4 -6 10 -13 13 -7
3 -13 -3 -13 -13z"/>
<path d="M8604 6190 c0 -10 6 -16 13 -13 7 3 13 9 13 13 0 4 -6 10 -13 13 -7
3 -13 -3 -13 -13z"/>
<path d="M700 6165 c0 -12 -15 -15 -75 -15 -43 0 -75 -4 -75 -10 0 -6 32 -10
75 -10 60 0 75 -3 75 -15 0 -13 5 -12 35 2 19 9 35 20 35 23 0 3 -16 14 -35
23 -30 14 -35 15 -35 2z"/>
<path d="M4465 6140 c0 -24 4 -40 11 -40 7 0 10 8 7 19 -3 13 1 21 14 24 16 4
16 5 1 6 -10 0 -18 6 -18 12 0 6 7 9 15 5 8 -3 15 -1 15 4 0 6 -10 10 -23 10
-20 0 -22 -5 -22 -40z"/>
<path d="M4530 6166 c-16 -20 -9 -60 13 -64 24 -5 35 28 14 43 -12 9 -14 14
-5 23 8 8 8 12 1 12 -6 0 -16 -7 -23 -14z m17 -48 c-3 -8 -6 -5 -6 6 -1 11 2
17 5 13 3 -3 4 -12 1 -19z"/>
<path d="M872 6161 c-21 -13 -11 -55 13 -58 16 -1 16 -1 3 3 -21 6 -24 34 -6
52 14 14 9 15 -10 3z"/>
<path d="M1255 6149 c-10 -30 -2 -32 12 -3 6 13 7 24 3 24 -5 0 -12 -9 -15
-21z"/>
<path d="M1304 6158 c-4 -6 0 -16 9 -23 22 -16 21 -22 0 -28 -14 -4 -12 -5 5
-6 25 -1 31 26 7 35 -8 4 -15 11 -15 16 0 6 7 7 16 4 8 -3 12 -2 9 4 -8 13
-22 13 -31 -2z"/>
<path d="M1425 6160 c3 -5 8 -10 11 -10 2 0 4 5 4 10 0 6 -5 10 -11 10 -5 0
-7 -4 -4 -10z"/>
<path d="M2246 6154 c-19 -18 -19 -20 -6 -45 11 -19 54 -26 64 -10 4 5 -2 7
-12 4 -23 -6 -44 19 -36 42 5 11 14 15 30 12 13 -2 24 0 24 4 0 15 -48 10 -64
-7z"/>
<path d="M2330 6156 c-16 -20 -9 -60 11 -64 25 -5 34 30 12 46 -16 11 -16 14
-3 22 8 5 10 10 4 10 -6 0 -17 -7 -24 -14z m20 -42 c0 -8 -5 -12 -10 -9 -6 4
-8 11 -5 16 9 14 15 11 15 -7z"/>
<path d="M3041 6156 c-8 -9 -11 -46 -9 -103 l3 -88 339 -3 c242 -2 343 1 352
9 10 8 14 35 14 86 0 123 32 113 -354 113 -274 0 -336 -3 -345 -14z m684 -19
c3 -12 5 -54 3 -92 l-3 -70 -340 0 -340 0 -3 79 c-2 44 -1 85 2 93 4 10 70 13
340 13 l336 0 5 -23z"/>
<path d="M3260 6071 c0 -28 5 -51 10 -51 6 0 10 9 10 20 0 11 4 20 9 20 5 0
13 -9 16 -20 11 -35 21 -22 20 28 0 46 -1 47 -32 50 l-33 3 0 -50z m50 19 c0
-11 -7 -20 -15 -20 -8 0 -15 9 -15 20 0 11 7 20 15 20 8 0 15 -9 15 -20z"/>
<path d="M3350 6070 c0 -27 5 -50 10 -50 6 0 10 9 10 19 0 12 8 21 23 24 l22
4 -22 2 c-35 2 -31 39 5 44 22 3 20 4 -10 6 l-38 1 0 -50z"/>
<path d="M3440 6070 c0 -27 5 -50 10 -50 6 0 10 9 10 19 0 12 8 21 23 24 l22
4 -22 2 c-35 2 -31 39 5 44 22 3 20 4 -10 6 l-38 1 0 -50z"/>
<path d="M1098 6153 c7 -3 16 -2 19 1 4 3 -2 6 -13 5 -11 0 -14 -3 -6 -6z"/>
<path d="M1208 6153 c7 -3 16 -2 19 1 4 3 -2 6 -13 5 -11 0 -14 -3 -6 -6z"/>
<path d="M9144 6065 c0 -55 1 -76 3 -47 2 29 2 74 0 100 -2 26 -3 2 -3 -53z"/>
<path d="M927 6144 c-15 -15 -7 -45 11 -42 9 2 17 12 17 22 0 20 -16 31 -28
20z m23 -19 c0 -8 -4 -15 -10 -15 -5 0 -10 7 -10 15 0 8 5 15 10 15 6 0 10 -7
10 -15z"/>
<path d="M971 6123 c2 -24 2 -25 6 -5 2 12 8 22 13 22 5 0 11 -10 13 -22 4
-20 4 -19 6 5 1 21 -4 27 -19 27 -15 0 -20 -6 -19 -27z"/>
<path d="M1031 6140 c-1 -17 16 -47 22 -40 3 3 8 16 11 30 6 23 6 23 -5 5 -12
-19 -12 -19 -20 0 -5 13 -8 15 -8 5z"/>
<path d="M1144 6130 c0 -10 6 -16 13 -13 7 3 13 9 13 13 0 4 -6 10 -13 13 -7
3 -13 -3 -13 -13z"/>
<path d="M1100 6133 c15 -7 12 -21 -5 -26 -11 -4 -10 -4 2 -3 21 2 25 28 5 32
-7 1 -8 0 -2 -3z"/>
<path d="M1210 6133 c15 -7 12 -21 -5 -26 -11 -4 -10 -4 2 -3 21 2 25 28 5 32
-7 1 -8 0 -2 -3z"/>
<path d="M1370 6115 c-10 -13 -9 -15 11 -14 13 0 18 3 11 6 -6 2 -10 9 -6 14
9 15 -2 10 -16 -6z"/>
<path d="M1772 6070 c-1 -36 -9 -78 -17 -94 -13 -25 -13 -27 0 -16 19 16 27
62 22 125 -3 47 -4 45 -5 -15z"/>
<path d="M5620 6105 c0 -13 -48 -15 -390 -15 -253 0 -390 -4 -390 -10 0 -6
137 -10 390 -10 340 0 390 -2 390 -15 0 -19 7 -18 49 4 l35 19 -42 21 c-35 18
-42 19 -42 6z"/>
<path d="M1420 6100 c-9 -6 -10 -10 -3 -10 6 0 15 5 18 10 8 12 4 12 -15 0z"/>
<path d="M2927 6090 c5 -19 -1 -20 -191 -20 -124 0 -196 -4 -196 -10 0 -6 72
-10 195 -10 168 0 195 -2 195 -15 0 -13 7 -12 41 5 23 12 39 23 37 24 -1 2
-22 13 -44 24 -41 21 -42 21 -37 2z"/>
<path d="M5960 6070 c0 -22 5 -40 10 -40 6 0 10 7 10 15 0 8 5 15 10 15 6 0
10 -7 10 -15 0 -8 5 -15 10 -15 6 0 10 18 10 40 0 22 -4 40 -10 40 -5 0 -10
-9 -10 -20 0 -11 -4 -20 -10 -20 -5 0 -10 9 -10 20 0 11 -4 20 -10 20 -5 0
-10 -18 -10 -40z"/>
<path d="M6200 6101 c0 -5 -9 -11 -21 -14 -32 -9 -22 -51 14 -55 26 -3 27 -1
27 37 0 23 -4 41 -10 41 -5 0 -10 -4 -10 -9z m0 -41 c0 -11 -4 -20 -10 -20 -5
0 -10 9 -10 20 0 11 5 20 10 20 6 0 10 -9 10 -20z"/>
<path d="M7020 5900 l0 -210 30 0 30 0 0 210 0 210 -30 0 -30 0 0 -210z m50 0
c0 -193 -1 -200 -20 -200 -19 0 -20 7 -20 200 0 193 1 200 20 200 19 0 20 -7
20 -200z"/>
<path d="M7530 5900 l0 -210 30 0 30 0 0 210 0 210 -30 0 -30 0 0 -210z m50 0
c0 -193 -1 -200 -20 -200 -19 0 -20 7 -20 200 0 193 1 200 20 200 19 0 20 -7
20 -200z"/>
<path d="M3963 6086 c6 -14 -7 -16 -103 -16 -67 0 -110 -4 -110 -10 0 -6 43
-10 109 -10 105 0 109 -1 104 -21 -6 -20 -5 -20 40 2 26 13 46 24 44 25 -1 1
-22 12 -46 24 -36 18 -43 19 -38 6z"/>
<path d="M6034 6076 c-10 -25 3 -46 28 -45 22 0 22 1 3 9 -18 8 -18 9 -2 9 12
1 17 7 15 18 -4 23 -36 29 -44 9z m31 -6 c3 -5 -1 -10 -10 -10 -9 0 -13 5 -10
10 3 6 8 10 10 10 2 0 7 -4 10 -10z"/>
<path d="M6113 6083 c18 -5 17 -6 -2 -20 -12 -8 -19 -19 -16 -24 10 -15 55
-11 55 5 0 29 -13 46 -34 45 -18 -1 -18 -2 -3 -6z"/>
<path d="M5384 5955 c0 -55 1 -76 3 -47 2 29 2 74 0 100 -2 26 -3 2 -3 -53z"/>
<path d="M488 5929 c10 -10 44 -14 135 -15 l122 -1 -115 6 c-63 4 -124 11
-135 15 -17 8 -18 7 -7 -5z"/>
<path d="M2140 5891 c-18 -36 -19 -43 -6 -38 14 6 16 -9 16 -128 0 -78 4 -136
10 -140 6 -4 10 43 10 134 0 121 2 140 15 135 19 -8 18 3 -4 45 l-19 35 -22
-43z"/>
<path d="M3341 5884 c-17 -37 -19 -45 -6 -41 11 5 15 0 15 -18 l0 -25 -220 0
-220 0 0 -80 0 -80 -159 0 c-124 0 -161 -3 -170 -14 -8 -9 -11 -46 -9 -103 l3
-88 339 -3 c187 -1 343 1 347 5 5 5 -147 7 -337 5 l-345 -3 3 93 3 93 329 3
c228 1 333 -1 342 -9 8 -7 14 -40 17 -87 l3 -77 2 77 c3 110 6 108 -189 108
l-159 0 0 70 0 70 220 0 220 0 0 36 c0 31 2 35 21 29 20 -7 20 -7 -2 37 -12
23 -22 44 -23 45 -1 2 -12 -18 -25 -43z"/>
<path d="M898 5913 c29 -2 74 -2 100 0 26 2 2 3 -53 3 -55 0 -76 -1 -47 -3z"/>
<path d="M1198 5913 c29 -2 74 -2 100 0 26 2 2 3 -53 3 -55 0 -76 -1 -47 -3z"/>
<path d="M1498 5913 c29 -2 74 -2 100 0 26 2 2 3 -53 3 -55 0 -76 -1 -47 -3z"/>
<path d="M7351 5868 c-1 -34 -18 -37 -24 -5 -4 19 -4 18 -6 -5 -1 -18 4 -28
13 -28 8 0 16 -5 18 -12 8 -24 14 17 7 47 l-7 30 -1 -27z"/>
<path d="M7260 5858 c6 -8 5 -17 -3 -27 -10 -14 -10 -14 4 -4 9 8 19 9 25 3 5
-5 9 0 9 15 0 15 -4 20 -11 14 -6 -5 -15 -5 -22 1 -9 7 -9 7 -2 -2z"/>
<path d="M9144 5765 c0 -55 1 -76 3 -47 2 29 2 74 0 100 -2 26 -3 2 -3 -53z"/>
<path d="M8030 5620 l0 -210 30 0 30 0 0 210 0 210 -30 0 -30 0 0 -210z m50 0
c0 -193 -1 -200 -20 -200 -19 0 -20 7 -20 200 0 193 1 200 20 200 19 0 20 -7
20 -200z"/>
<path d="M5384 5655 c0 -55 1 -76 3 -47 2 29 2 74 0 100 -2 26 -3 2 -3 -53z"/>
<path d="M8262 5661 c-21 -13 -11 -55 13 -58 16 -1 16 -1 3 3 -21 6 -24 34 -6
52 14 14 9 15 -10 3z"/>
<path d="M8416 5652 c-7 -12 13 -52 26 -51 10 0 10 2 1 6 -16 6 -17 30 -1 35
8 3 6 7 -5 11 -9 3 -18 3 -21 -1z"/>
<path d="M1432 5638 c-25 -25 -6 -68 29 -68 10 0 20 4 23 8 3 5 -5 8 -17 8
-17 -1 -22 5 -22 24 0 19 5 25 23 24 12 0 22 3 22 8 0 12 -44 10 -58 -4z"/>
<path d="M1500 5630 c0 -11 7 -20 15 -20 8 0 15 -7 15 -16 0 -10 -6 -14 -15
-10 -8 3 -15 1 -15 -4 0 -14 24 -12 38 2 18 18 15 28 -10 38 -18 7 -19 9 -5 9
24 1 22 21 -3 21 -13 0 -20 -7 -20 -20z"/>
<path d="M8320 5640 c13 -8 13 -10 -2 -10 -11 0 -15 -5 -12 -15 4 -8 14 -15
23 -15 14 0 14 2 1 10 -10 6 -11 10 -2 10 6 0 12 7 12 15 0 8 -8 15 -17 15
-15 0 -16 -2 -3 -10z"/>
<path d="M8361 5623 c2 -24 2 -25 6 -5 2 12 8 22 13 22 5 0 11 -10 13 -22 4
-20 4 -19 6 5 1 21 -4 27 -19 27 -15 0 -20 -6 -19 -27z"/>
<path d="M8474 5636 c-8 -20 3 -36 24 -35 14 0 13 2 -3 9 -18 8 -18 9 -2 9 10
1 17 6 15 13 -7 19 -27 21 -34 4z"/>
<path d="M8525 5625 c0 -14 5 -25 12 -25 7 0 9 9 5 22 -4 17 -2 20 12 15 10
-4 15 -3 11 3 -13 21 -40 10 -40 -15z"/>
<path d="M8640 5639 c0 -5 4 -8 9 -4 5 3 12 -5 14 -17 4 -20 4 -19 6 5 1 18
-4 27 -14 27 -8 0 -15 -5 -15 -11z"/>
<path d="M8694 5636 c-8 -20 3 -36 24 -35 14 0 13 2 -3 9 -18 8 -18 9 -2 9 10
1 17 6 15 13 -7 19 -27 21 -34 4z"/>
<path d="M8750 5635 c0 -8 6 -15 13 -15 8 0 7 -4 -3 -10 -13 -8 -12 -10 3 -10
9 0 17 7 17 15 0 8 -6 15 -12 15 -9 0 -8 4 2 10 13 8 12 10 -2 10 -10 0 -18
-7 -18 -15z"/>
<path d="M8805 5640 c-3 -6 2 -13 11 -17 16 -6 16 -7 -2 -14 -17 -7 -17 -8 4
-8 26 -1 30 17 5 26 -15 6 -15 7 3 14 16 6 16 8 2 8 -9 1 -20 -4 -23 -9z"/>
<path d="M4585 5600 c0 -31 4 -40 17 -40 11 0 15 6 11 20 -3 13 0 20 8 20 11
0 11 2 -1 10 -13 9 -13 11 0 20 12 8 10 10 -10 10 -23 0 -25 -4 -25 -40z"/>
<path d="M4650 5621 c0 -10 7 -22 16 -25 8 -3 12 -11 9 -17 -4 -6 -14 -8 -22
-5 -8 3 -11 1 -8 -4 10 -16 35 -12 42 6 4 11 -1 22 -12 30 -17 13 -17 14 -2
14 9 0 17 5 17 10 0 6 -9 10 -20 10 -13 0 -20 -7 -20 -19z"/>
<path d="M8588 5633 c6 -2 18 -2 25 0 6 3 1 5 -13 5 -14 0 -19 -2 -12 -5z"/>
<path d="M2800 5541 c0 -28 5 -51 10 -51 6 0 10 9 10 20 0 11 4 20 9 20 5 0
13 -9 16 -20 11 -35 21 -22 20 28 0 46 -1 47 -32 50 l-33 3 0 -50z m50 19 c0
-11 -7 -20 -15 -20 -8 0 -15 9 -15 20 0 11 7 20 15 20 8 0 15 -9 15 -20z"/>
<path d="M2890 5540 c0 -27 5 -50 10 -50 6 0 10 9 10 19 0 12 8 21 23 24 l22
4 -22 2 c-35 2 -31 39 5 44 22 3 20 4 -10 6 l-38 1 0 -50z"/>
<path d="M2980 5540 c0 -27 5 -50 10 -50 6 0 10 9 10 19 0 12 8 21 23 24 l22
4 -22 2 c-35 2 -31 39 5 44 22 3 20 4 -10 6 l-38 1 0 -50z"/>
<path d="M3836 5565 c5 -13 -24 -15 -222 -16 -126 0 -249 -4 -274 -8 -28 -6
57 -9 229 -10 267 -1 273 -1 268 -21 -5 -19 -4 -19 37 2 22 11 43 22 44 24 4
3 -73 44 -82 44 -3 0 -3 -7 0 -15z"/>
<path d="M5960 5540 c0 -22 5 -40 10 -40 6 0 10 7 10 15 0 8 5 15 10 15 6 0
10 -7 10 -15 0 -8 5 -15 10 -15 6 0 10 18 10 40 0 22 -4 40 -10 40 -5 0 -10
-9 -10 -20 0 -11 -4 -20 -10 -20 -5 0 -10 9 -10 20 0 11 -4 20 -10 20 -5 0
-10 -18 -10 -40z"/>
<path d="M6200 5571 c0 -5 -9 -11 -21 -14 -32 -9 -22 -51 14 -55 26 -3 27 -1
27 37 0 23 -4 41 -10 41 -5 0 -10 -4 -10 -9z m0 -41 c0 -11 -4 -20 -10 -20 -5
0 -10 9 -10 20 0 11 5 20 10 20 6 0 10 -9 10 -20z"/>
<path d="M5618 5548 l5 -21 -331 6 c-209 4 -333 3 -337 -3 -4 -6 103 -10 292
-10 317 0 373 -4 373 -27 0 -10 9 -9 41 7 23 12 39 23 37 24 -1 2 -22 13 -44
24 l-42 21 6 -21z"/>
<path d="M6034 5546 c-10 -25 3 -46 28 -45 22 0 22 1 3 9 -18 8 -18 9 -2 9 12
1 17 7 15 18 -4 23 -36 29 -44 9z m31 -6 c3 -5 -1 -10 -10 -10 -9 0 -13 5 -10
10 3 6 8 10 10 10 2 0 7 -4 10 -10z"/>
<path d="M6113 5553 c18 -5 17 -6 -2 -20 -12 -8 -19 -19 -16 -24 10 -15 55
-11 55 5 0 29 -13 46 -34 45 -18 -1 -18 -2 -3 -6z"/>
<path d="M9144 5465 c0 -55 1 -76 3 -47 2 29 2 74 0 100 -2 26 -3 2 -3 -53z"/>
<path d="M8411 5520 c1 -19 3 -27 6 -17 2 9 12 17 21 18 14 0 14 2 2 6 -8 3
-18 11 -22 17 -4 6 -7 -5 -7 -24z"/>
<path d="M8521 5528 c-1 -29 14 -46 22 -26 4 10 6 10 6 0 1 -7 6 -10 11 -7 6
3 9 18 9 33 -1 20 -3 22 -6 8 -4 -15 -7 -16 -14 -5 -7 12 -9 12 -10 -1 0 -10
-3 -8 -9 5 -8 18 -9 17 -9 -7z"/>
<path d="M8645 5520 c0 -16 5 -30 11 -30 6 0 9 13 6 30 -2 17 -7 30 -11 30 -3
0 -6 -13 -6 -30z"/>
<path d="M8474 5520 c0 -9 7 -16 16 -16 9 0 16 7 16 16 0 9 -7 16 -16 16 -9 0
-16 -7 -16 -16z"/>
<path d="M8584 5520 c0 -9 7 -16 16 -16 9 0 16 7 16 16 0 9 -7 16 -16 16 -9 0
-16 -7 -16 -16z"/>
<path d="M5384 5355 c0 -55 1 -76 3 -47 2 29 2 74 0 100 -2 26 -3 2 -3 -53z"/>
<path d="M1282 5374 c-22 -45 -22 -45 -2 -39 19 6 20 2 20 -74 0 -47 4 -81 10
-81 6 0 10 34 10 81 0 68 2 80 15 75 8 -3 15 -3 15 0 0 7 -40 84 -43 84 -2 0
-13 -21 -25 -46z"/>
<path d="M4400 5341 c0 -75 -1 -79 -21 -74 l-21 6 21 -42 c12 -22 23 -41 26
-41 3 0 14 18 25 40 17 34 18 40 5 40 -12 0 -15 15 -15 75 0 43 -4 75 -10 75
-6 0 -10 -33 -10 -79z"/>
<path d="M2893 5366 c-21 -42 -21 -44 -2 -39 18 5 19 -1 19 -101 0 -69 4 -105
10 -101 6 3 10 50 10 107 0 85 2 99 15 94 8 -3 15 -3 15 0 0 7 -40 84 -43 84
-2 0 -13 -20 -24 -44z"/>
<path d="M7020 5120 l0 -210 30 0 30 0 0 210 0 210 -30 0 -30 0 0 -210z m50 0
c0 -193 -1 -200 -20 -200 -19 0 -20 7 -20 200 0 193 1 200 20 200 19 0 20 -7
20 -200z"/>
<path d="M7530 5120 l0 -210 30 0 30 0 0 210 0 210 -30 0 -30 0 0 -210z m50 0
c0 -193 -1 -200 -20 -200 -19 0 -20 7 -20 200 0 193 1 200 20 200 19 0 20 -7
20 -200z"/>
<path d="M8030 5120 l0 -210 30 0 30 0 0 210 0 210 -30 0 -30 0 0 -210z m50 0
c0 -193 -1 -200 -20 -200 -19 0 -20 7 -20 200 0 193 1 200 20 200 19 0 20 -7
20 -200z"/>
<path d="M9144 5165 c0 -55 1 -76 3 -47 2 29 2 74 0 100 -2 26 -3 2 -3 -53z"/>
<path d="M5382 5123 l-2 -33 -135 0 c-83 0 -135 -4 -135 -10 0 -6 52 -10 135
-10 l134 0 4 -57 3 -58 2 58 2 57 131 0 c127 0 130 -1 124 -21 -7 -20 -7 -20
37 2 23 12 45 23 46 25 4 3 -73 44 -82 44 -3 0 -3 -7 0 -15 5 -13 -12 -15
-124 -15 l-131 0 -4 33 -4 32 -1 -32z"/>
<path d="M1502 5118 c-25 -25 -6 -68 29 -68 10 0 20 4 23 8 3 5 -5 8 -17 8
-17 -1 -22 5 -22 24 0 19 5 25 23 24 12 0 22 3 22 8 0 12 -44 10 -58 -4z"/>
<path d="M1589 5118 c-1 -7 -1 -19 0 -27 2 -7 -2 -10 -8 -6 -6 3 -11 1 -11 -4
0 -6 5 -11 11 -11 5 0 7 -4 4 -10 -3 -5 3 -10 14 -10 13 0 18 6 16 18 -2 9 -4
27 -4 40 -1 23 -20 32 -22 10z"/>
<path d="M4695 5080 c0 -31 4 -40 17 -40 12 0 15 5 11 16 -3 9 0 20 8 25 10 6
10 9 2 9 -7 0 -13 5 -13 11 0 6 7 9 15 5 8 -3 15 -1 15 4 0 6 -12 10 -27 10
-26 0 -28 -3 -28 -40z"/>
<path d="M4776 5111 c-4 -5 -3 -17 0 -28 4 -13 3 -14 -4 -5 -7 11 -10 11 -15
-2 -4 -10 -1 -16 9 -16 8 0 12 -4 9 -10 -3 -5 3 -10 14 -10 13 0 18 6 16 18
-2 9 -4 27 -4 40 -1 22 -15 30 -25 13z"/>
<path d="M2919 5103 c226 -2 339 -7 348 -14 17 -15 18 -160 1 -177 -9 -9 -103
-13 -347 -14 l-336 -3 333 -2 c218 -2 340 0 352 7 18 9 20 22 20 100 0 78 -2
91 -19 100 -13 6 -138 9 -353 8 l-333 -3 334 -2z"/>
<path d="M2556 5084 c-3 -9 -6 -46 -6 -84 0 -74 6 -100 23 -100 7 0 7 4 -1 12
-16 16 -16 160 0 176 8 8 8 12 1 12 -6 0 -14 -7 -17 -16z"/>
<path d="M7351 5078 c-1 -34 -18 -37 -24 -5 -4 19 -4 18 -6 -5 -1 -18 4 -28
13 -28 8 0 16 -5 18 -12 8 -24 14 17 7 47 l-7 30 -1 -27z"/>
<path d="M5960 5050 c0 -22 5 -40 10 -40 6 0 10 7 10 15 0 8 5 15 10 15 6 0
10 -7 10 -15 0 -8 5 -15 10 -15 6 0 10 18 10 40 0 22 -4 40 -10 40 -5 0 -10
-9 -10 -20 0 -11 -4 -20 -10 -20 -5 0 -10 9 -10 20 0 11 -4 20 -10 20 -5 0
-10 -18 -10 -40z"/>
<path d="M6200 5081 c0 -5 -9 -11 -21 -14 -32 -9 -22 -51 14 -55 26 -3 27 -1
27 37 0 23 -4 41 -10 41 -5 0 -10 -4 -10 -9z m0 -41 c0 -11 -4 -20 -10 -20 -5
0 -10 9 -10 20 0 11 5 20 10 20 6 0 10 -9 10 -20z"/>
<path d="M7260 5068 c6 -8 5 -17 -3 -27 -10 -14 -10 -14 4 -4 9 8 19 9 25 3 5
-5 9 0 9 15 0 15 -4 20 -11 14 -6 -5 -15 -5 -22 1 -9 7 -9 7 -2 -2z"/>
<path d="M8290 5050 l0 -31 21 20 c22 20 19 41 -7 41 -9 0 -14 -11 -14 -30z
m30 10 c0 -5 -4 -10 -10 -10 -5 0 -10 5 -10 10 0 6 5 10 10 10 6 0 10 -4 10
-10z"/>
<path d="M6034 5056 c-10 -25 3 -46 28 -45 22 0 22 1 3 9 -18 8 -18 9 -2 9 12
1 17 7 15 18 -4 23 -36 29 -44 9z m31 -6 c3 -5 -1 -10 -10 -10 -9 0 -13 5 -10
10 3 6 8 10 10 10 2 0 7 -4 10 -10z"/>
<path d="M6113 5063 c18 -5 17 -6 -2 -20 -12 -8 -19 -19 -16 -24 10 -15 55
-11 55 5 0 29 -13 46 -34 45 -18 -1 -18 -2 -3 -6z"/>
<path d="M8354 5056 c-7 -18 3 -36 19 -36 7 0 6 4 -3 10 -13 8 -12 10 3 10 10
0 17 5 15 12 -7 19 -27 21 -34 4z"/>
<path d="M8407 5063 c-14 -13 -7 -43 11 -44 15 0 14 -2 -3 -10 l-20 -9 20 3
c24 3 36 67 12 67 -7 0 -17 -3 -20 -7z m23 -18 c0 -8 -4 -15 -10 -15 -5 0 -10
7 -10 15 0 8 5 15 10 15 6 0 10 -7 10 -15z"/>
<path d="M8458 5045 c-4 -20 -1 -25 16 -25 16 0 18 2 7 9 -7 5 -10 14 -7 20 4
6 12 9 17 6 5 -4 9 -1 9 4 0 23 -38 11 -42 -14z"/>
<path d="M8514 5056 c-8 -20 3 -36 24 -35 14 0 13 2 -3 9 -18 8 -18 9 -2 9 10
1 17 6 15 13 -7 19 -27 21 -34 4z"/>
<path d="M8570 5060 c0 -6 8 -14 17 -17 15 -6 15 -7 -3 -14 -16 -6 -16 -8 -2
-8 24 -1 33 18 12 26 -16 6 -16 7 2 14 17 7 17 8 -3 8 -13 1 -23 -4 -23 -9z"/>
<path d="M8625 5060 c-3 -6 2 -13 11 -17 16 -6 16 -7 -2 -14 -17 -7 -17 -8 4
-8 26 -1 30 17 5 26 -15 6 -15 7 3 14 16 6 16 8 2 8 -9 1 -20 -4 -23 -9z"/>
<path d="M8690 5063 c14 -7 13 -30 -2 -36 -7 -3 -3 -6 9 -6 19 -1 21 2 14 21
-4 12 -13 23 -20 24 -6 1 -7 0 -1 -3z"/>
<path d="M8734 5056 c-7 -19 3 -36 22 -36 10 0 14 8 12 22 -4 26 -26 36 -34
14z m26 -11 c0 -8 -4 -15 -10 -15 -5 0 -10 7 -10 15 0 8 5 15 10 15 6 0 10 -7
10 -15z"/>
<path d="M8791 5043 c1 -23 2 -24 6 -5 2 12 8 22 13 22 5 0 11 -10 13 -22 5
-20 5 -20 4 2 -1 15 -9 26 -19 28 -14 3 -18 -3 -17 -25z"/>
<path d="M2800 5001 c0 -28 5 -51 10 -51 6 0 10 9 10 20 0 11 4 20 9 20 5 0
13 -9 16 -20 11 -35 21 -22 20 28 0 46 -1 47 -32 50 l-33 3 0 -50z m50 19 c0
-11 -7 -20 -15 -20 -8 0 -15 9 -15 20 0 11 7 20 15 20 8 0 15 -9 15 -20z"/>
<path d="M2890 5000 c0 -27 5 -50 10 -50 6 0 10 9 10 19 0 12 8 21 23 24 l22
4 -22 2 c-35 2 -31 39 5 44 22 3 20 4 -10 6 l-38 1 0 -50z"/>
<path d="M2980 5000 c0 -27 5 -50 10 -50 6 0 10 9 10 19 0 12 8 21 23 24 l22
4 -22 2 c-35 2 -31 39 5 44 22 3 20 4 -10 6 l-38 1 0 -50z"/>
<path d="M3696 5015 c5 -13 -20 -15 -190 -15 -124 0 -196 -4 -196 -10 0 -6 72
-10 196 -10 170 0 195 -2 190 -15 -3 -8 -3 -15 -1 -15 11 0 75 34 75 40 0 6
-64 40 -75 40 -2 0 -2 -7 1 -15z"/>
<path d="M8431 4940 c1 -19 3 -27 6 -17 2 9 8 17 13 17 5 0 11 -8 13 -17 3
-10 5 -2 6 17 0 26 -2 31 -9 20 -9 -13 -11 -13 -20 0 -7 11 -9 6 -9 -20z"/>
<path d="M8541 4943 c-1 -26 3 -31 19 -30 22 1 25 14 10 37 -9 13 -10 13 -11
0 0 -10 -3 -8 -9 5 -7 17 -9 15 -9 -12z"/>
<path d="M8680 4950 c0 -25 -17 -26 -23 -2 -4 13 -5 13 -6 -4 -1 -14 6 -24 19
-27 17 -4 20 0 20 24 0 16 -2 29 -5 29 -3 0 -5 -9 -5 -20z"/>
<path d="M8503 4953 c-17 -6 -17 -20 0 -26 8 -3 13 3 13 14 0 11 0 19 -1 18 0
0 -6 -3 -12 -6z"/>
<path d="M8613 4953 c-17 -6 -17 -20 0 -26 8 -3 13 3 13 14 0 11 0 19 -1 18 0
0 -6 -3 -12 -6z"/>
<path d="M9144 4865 c0 -55 1 -76 3 -47 2 29 2 74 0 100 -2 26 -3 2 -3 -53z"/>
<path d="M4400 4809 c0 -86 -1 -91 -20 -86 -19 5 -19 4 2 -37 11 -22 22 -43
24 -44 3 -4 44 73 44 82 0 3 -7 3 -15 0 -13 -5 -15 7 -15 79 0 47 -4 89 -10
92 -6 4 -10 -27 -10 -86z"/>
<path d="M7376 4887 c4 -11 0 -25 -11 -37 -18 -19 -17 -20 6 -19 13 0 19 3 12
6 -10 3 -10 9 0 23 9 15 9 22 -1 32 -11 11 -12 10 -6 -5z"/>
<path d="M7476 4884 c-9 -8 -16 -22 -16 -30 0 -20 29 -29 43 -15 9 10 8 15 -5
25 -13 10 -15 15 -6 24 7 7 9 12 6 12 -4 0 -14 -7 -22 -16z m24 -34 c0 -5 -7
-10 -15 -10 -8 0 -15 5 -15 10 0 6 7 10 15 10 8 0 15 -4 15 -10z"/>
<path d="M7131 4860 c1 -19 3 -27 6 -17 2 9 12 17 21 18 14 0 14 2 2 6 -8 3
-18 11 -22 17 -4 6 -7 -5 -7 -24z"/>
<path d="M7241 4868 c-1 -29 14 -46 22 -26 4 10 6 10 6 0 1 -7 6 -10 11 -7 6
3 9 18 9 33 -1 20 -3 22 -6 8 -4 -15 -7 -16 -14 -5 -7 12 -9 12 -10 -1 0 -10
-3 -8 -9 5 -8 18 -9 17 -9 -7z"/>
<path d="M7410 4875 c0 -8 7 -15 15 -15 8 0 15 -5 15 -11 0 -6 -7 -9 -15 -5
-8 3 -15 1 -15 -4 0 -13 27 -13 35 1 4 6 -2 19 -14 30 -17 16 -21 17 -21 4z"/>
<path d="M1281 4842 c-18 -35 -19 -42 -6 -42 12 0 15 -15 15 -75 0 -43 4 -75
10 -75 6 0 10 32 10 75 0 60 3 75 15 75 19 0 18 7 -4 49 l-19 35 -21 -42z"/>
<path d="M7194 4860 c0 -10 6 -16 13 -13 7 3 13 9 13 13 0 4 -6 10 -13 13 -7
3 -13 -3 -13 -13z"/>
<path d="M7304 4860 c0 -10 6 -16 13 -13 7 3 13 9 13 13 0 4 -6 10 -13 13 -7
3 -13 -3 -13 -13z"/>
<path d="M2903 4826 c-21 -42 -21 -44 -2 -39 18 5 19 0 19 -71 0 -44 4 -76 10
-76 6 0 10 32 10 75 0 60 3 75 15 75 13 0 12 6 -5 40 -11 22 -22 40 -23 40 -2
0 -13 -20 -24 -44z"/>
<path d="M5384 4755 c0 -55 1 -76 3 -47 2 29 2 74 0 100 -2 26 -3 2 -3 -53z"/>
<path d="M8276 4672 c-9 -27 3 -54 21 -48 8 3 28 6 44 6 22 0 29 5 29 20 0 16
-7 20 -33 20 -18 0 -38 5 -44 11 -8 8 -13 6 -17 -9z"/>
<path d="M8422 4650 c0 -14 2 -19 5 -12 2 6 2 18 0 25 -3 6 -5 1 -5 -13z"/>
<path d="M9144 4565 c0 -55 1 -76 3 -47 2 29 2 74 0 100 -2 26 -3 2 -3 -53z"/>
<path d="M8471 4624 c0 -11 3 -14 6 -6 3 7 2 16 -1 19 -3 4 -6 -2 -5 -13z"/>
<path d="M8541 4624 c0 -11 3 -14 6 -6 3 7 2 16 -1 19 -3 4 -6 -2 -5 -13z"/>
<path d="M2566 4604 c-11 -10 -15 -31 -14 -62 l1 -47 4 45 c3 24 9 50 15 57 8
10 87 13 347 13 185 0 342 -4 349 -9 9 -5 12 -31 10 -92 l-3 -84 -355 0 -355
0 -6 30 c-6 28 -7 28 -8 5 -2 -47 11 -50 196 -50 95 0 173 -2 173 -5 0 -3 -9
-24 -21 -47 -17 -34 -18 -40 -5 -35 14 6 16 -5 16 -78 0 -46 5 -87 10 -90 6
-4 10 26 10 83 0 87 1 90 21 85 l21 -6 -21 41 c-12 23 -21 44 -21 47 0 3 78 5
174 5 191 0 186 -2 186 63 l0 32 125 -3 c102 -3 125 -6 125 -18 0 -12 8 -10
42 7 l42 21 -35 19 c-42 22 -49 23 -49 4 0 -13 -21 -15 -125 -15 l-125 0 0 40
c0 29 -5 42 -19 50 -13 6 -143 10 -355 10 -291 0 -337 -2 -350 -16z"/>
<path d="M7808 4585 c3 -25 9 -35 21 -34 10 0 11 2 4 6 -7 2 -13 18 -13 34 0
16 -4 29 -8 29 -4 0 -6 -16 -4 -35z"/>
<path d="M7301 4580 c1 -19 3 -27 6 -17 2 9 12 17 21 18 14 0 14 2 2 6 -8 3
-18 11 -22 17 -4 6 -7 -5 -7 -24z"/>
<path d="M7911 4583 c-1 -28 2 -33 22 -32 15 1 17 3 5 6 -9 2 -19 16 -21 31
-4 24 -4 24 -6 -5z"/>
<path d="M1586 4584 c-34 -34 -4 -64 62 -61 47 2 47 2 47 37 0 27 -4 35 -20
38 -16 2 -17 1 -5 -7 8 -5 11 -13 7 -17 -4 -4 -2 -13 4 -21 6 -7 10 -13 8 -14
-30 -8 -80 -5 -88 5 -17 20 -3 44 27 49 l27 4 -27 2 c-15 0 -34 -6 -42 -15z"/>
<path d="M7367 4594 c-15 -15 -7 -45 11 -42 9 2 17 12 17 22 0 20 -16 31 -28
20z m23 -19 c0 -8 -4 -15 -10 -15 -5 0 -10 7 -10 15 0 8 5 15 10 15 6 0 10 -7
10 -15z"/>
<path d="M7415 4575 c0 -14 5 -25 12 -25 7 0 9 9 5 22 -4 17 -2 20 12 15 10
-4 15 -3 11 3 -13 21 -40 10 -40 -15z"/>
<path d="M7479 4586 c13 -15 13 -19 0 -27 -11 -7 -9 -9 8 -9 19 0 21 3 14 22
-4 12 -14 24 -22 27 -12 4 -12 2 0 -13z"/>
<path d="M7533 4593 c18 -5 18 -6 1 -24 -16 -18 -16 -19 7 -19 17 0 20 3 10 9
-9 6 -10 11 -2 15 19 12 12 26 -11 25 -19 -1 -19 -2 -5 -6z"/>
<path d="M7587 4594 c-15 -15 -7 -45 11 -42 9 2 17 12 17 22 0 20 -16 31 -28
20z m23 -19 c0 -8 -4 -15 -10 -15 -5 0 -10 7 -10 15 0 8 5 15 10 15 6 0 10 -7
10 -15z"/>
<path d="M7640 4589 c0 -5 4 -8 9 -4 5 3 12 -5 14 -17 4 -20 4 -19 6 5 1 18
-4 27 -14 27 -8 0 -15 -5 -15 -11z"/>
<path d="M7693 4593 c9 -2 23 -2 30 0 6 3 -1 5 -18 5 -16 0 -22 -2 -12 -5z"/>
<path d="M7758 4592 c11 -7 11 -10 -2 -15 -25 -10 -19 -27 9 -27 21 0 23 3 16
22 -4 12 -14 24 -22 26 -11 3 -12 2 -1 -6z"/>
<path d="M7964 4585 c-7 -18 3 -35 21 -35 15 0 24 19 18 38 -6 17 -32 15 -39
-3z m27 -18 c-13 -13 -26 -3 -16 12 3 6 11 8 17 5 6 -4 6 -10 -1 -17z"/>
<path d="M8020 4585 c0 -8 8 -15 18 -16 14 0 14 -2 -3 -9 -16 -7 -17 -9 -3 -9
24 -1 33 18 12 26 -16 6 -16 7 2 14 17 7 17 8 -3 8 -14 1 -23 -5 -23 -14z"/>
<path d="M8080 4585 c0 -8 6 -15 13 -15 8 0 7 -4 -3 -10 -13 -8 -12 -10 3 -10
9 0 17 7 17 15 0 8 -6 15 -12 15 -9 0 -8 4 2 10 13 8 12 10 -2 10 -10 0 -18
-7 -18 -15z"/>
<path d="M4815 4550 c0 -31 4 -40 17 -40 12 0 15 5 11 16 -3 9 0 20 8 25 10 6
10 9 2 9 -7 0 -13 5 -13 11 0 6 7 9 15 5 8 -3 15 -1 15 4 0 6 -12 10 -27 10
-26 0 -28 -3 -28 -40z"/>
<path d="M4889 4582 c7 -6 11 -14 7 -20 -3 -6 -2 -13 4 -17 16 -10 0 -27 -19
-20 -12 5 -13 3 -4 -6 6 -6 19 -9 28 -5 24 9 15 70 -11 74 -14 2 -16 1 -5 -6z"/>
<path d="M2800 4521 c0 -28 5 -51 10 -51 6 0 10 9 10 20 0 11 4 20 9 20 5 0
13 -9 16 -20 11 -35 21 -22 20 28 0 46 -1 47 -32 50 l-33 3 0 -50z m50 19 c0
-11 -7 -20 -15 -20 -8 0 -15 9 -15 20 0 11 7 20 15 20 8 0 15 -9 15 -20z"/>
<path d="M2890 4520 c0 -27 5 -50 10 -50 6 0 10 9 10 19 0 12 8 21 23 24 l22
4 -22 2 c-35 2 -31 39 5 44 22 3 20 4 -10 6 l-38 1 0 -50z"/>
<path d="M2980 4520 c0 -27 5 -50 10 -50 6 0 10 9 10 19 0 12 8 21 23 24 l22
4 -22 2 c-35 2 -31 39 5 44 22 3 20 4 -10 6 l-38 1 0 -50z"/>
<path d="M5960 4520 c0 -22 5 -40 10 -40 6 0 10 7 10 15 0 8 5 15 10 15 6 0
10 -7 10 -15 0 -8 5 -15 10 -15 6 0 10 18 10 40 0 22 -4 40 -10 40 -5 0 -10
-9 -10 -20 0 -11 -4 -20 -10 -20 -5 0 -10 9 -10 20 0 11 -4 20 -10 20 -5 0
-10 -18 -10 -40z"/>
<path d="M6200 4551 c0 -5 -9 -11 -21 -14 -32 -9 -22 -51 14 -55 26 -3 27 -1
27 37 0 23 -4 41 -10 41 -5 0 -10 -4 -10 -9z m0 -41 c0 -11 -4 -20 -10 -20 -5
0 -10 9 -10 20 0 11 5 20 10 20 6 0 10 -9 10 -20z"/>
<path d="M7708 4553 c7 -3 16 -2 19 1 4 3 -2 6 -13 5 -11 0 -14 -3 -6 -6z"/>
<path d="M5382 4523 l-2 -33 -75 0 c-43 0 -75 -4 -75 -10 0 -6 32 -10 75 -10
l74 0 4 -57 3 -58 2 58 2 57 140 0 c123 0 139 -2 133 -16 -5 -13 2 -12 38 6
24 12 45 23 46 24 2 1 -18 12 -43 24 -45 22 -45 22 -39 2 6 -19 2 -20 -134
-20 l-140 0 -4 33 -4 32 -1 -32z"/>
<path d="M6034 4526 c-10 -25 3 -46 28 -45 22 0 22 1 3 9 -18 8 -18 9 -2 9 12
1 17 7 15 18 -4 23 -36 29 -44 9z m31 -6 c3 -5 -1 -10 -10 -10 -9 0 -13 5 -10
10 3 6 8 10 10 10 2 0 7 -4 10 -10z"/>
<path d="M6113 4533 c18 -5 17 -6 -2 -20 -12 -8 -19 -19 -16 -24 10 -15 55
-11 55 5 0 29 -13 46 -34 45 -18 -1 -18 -2 -3 -6z"/>
<path d="M7750 4370 c0 -5 -7 -10 -15 -10 -8 0 -15 -4 -15 -10 0 -5 7 -7 15
-4 10 4 15 0 15 -11 0 -11 -5 -15 -15 -11 -8 3 -15 1 -15 -4 0 -6 9 -10 20
-10 16 0 20 7 20 35 0 19 -2 35 -5 35 -3 0 -5 -4 -5 -10z"/>
<path d="M7391 4338 c0 -18 3 -27 6 -20 3 9 9 10 17 3 9 -7 12 -3 11 17 0 17
-6 28 -17 30 -14 3 -18 -3 -17 -30z m29 12 c0 -5 -4 -10 -10 -10 -5 0 -10 5
-10 10 0 6 5 10 10 10 6 0 10 -4 10 -10z"/>
<path d="M7496 4362 c-7 -12 13 -52 26 -51 10 0 10 2 1 6 -16 6 -17 30 -1 35
8 3 6 7 -5 11 -9 3 -18 3 -21 -1z"/>
<path d="M7831 4343 c-1 -28 2 -33 22 -32 15 1 17 3 5 6 -9 2 -19 16 -21 31
-4 24 -4 24 -6 -5z"/>
<path d="M7444 4346 c-7 -19 3 -36 22 -36 10 0 14 8 12 22 -4 26 -26 36 -34
14z m26 -11 c0 -8 -4 -15 -10 -15 -5 0 -10 7 -10 15 0 8 5 15 10 15 6 0 10 -7
10 -15z"/>
<path d="M7565 4351 c17 -8 18 -10 3 -10 -29 -1 -22 -31 7 -31 21 0 23 3 16
23 -5 12 -17 23 -27 24 -17 3 -17 2 1 -6z"/>
<path d="M7613 4353 c9 -2 23 -2 30 0 6 3 -1 5 -18 5 -16 0 -22 -2 -12 -5z"/>
<path d="M7664 4346 c-8 -20 3 -36 24 -35 14 0 13 2 -3 9 -18 8 -18 9 -2 9 10
1 17 6 15 13 -7 19 -27 21 -34 4z"/>
<path d="M7884 4346 c-7 -19 3 -36 22 -36 10 0 14 8 12 22 -4 26 -26 36 -34
14z m26 -11 c0 -8 -4 -15 -10 -15 -5 0 -10 7 -10 15 0 8 5 15 10 15 6 0 10 -7
10 -15z"/>
<path d="M7940 4345 c0 -8 8 -15 18 -16 14 0 14 -2 -3 -9 -16 -7 -17 -9 -3 -9
24 -1 33 18 12 26 -16 6 -16 7 2 14 17 7 17 8 -3 8 -14 1 -23 -5 -23 -14z"/>
<path d="M7995 4350 c-3 -6 2 -13 11 -17 16 -6 16 -7 -2 -14 -17 -7 -17 -8 4
-8 26 -1 30 17 5 26 -15 6 -15 7 3 14 16 6 16 8 2 8 -9 1 -20 -4 -23 -9z"/>
<path d="M9142 4312 c-2 -52 -21 -105 -42 -115 -6 -3 -5 -4 2 -3 27 6 49 63
45 118 l-3 53 -2 -53z"/>
<path d="M1280 4311 c-17 -34 -18 -41 -5 -41 12 0 15 -15 15 -75 0 -43 4 -75
10 -75 6 0 10 32 10 76 0 71 1 76 20 71 19 -5 19 -4 -2 37 -11 22 -22 43 -24
44 -1 2 -12 -14 -24 -37z"/>
<path d="M7628 4313 c7 -3 16 -2 19 1 4 3 -2 6 -13 5 -11 0 -14 -3 -6 -6z"/>
<path d="M5390 4242 c0 -17 45 -62 62 -62 7 0 3 7 -9 15 -12 9 -29 26 -38 38
-8 12 -15 16 -15 9z"/>
<path d="M5523 4173 c32 -2 81 -2 110 0 29 2 3 3 -58 3 -60 0 -84 -1 -52 -3z"/>
<path d="M5838 4173 c29 -2 74 -2 100 0 26 2 2 3 -53 3 -55 0 -76 -1 -47 -3z"/>
<path d="M6138 4173 c29 -2 74 -2 100 0 26 2 2 3 -53 3 -55 0 -76 -1 -47 -3z"/>
<path d="M6438 4173 c29 -2 74 -2 100 0 26 2 2 3 -53 3 -55 0 -76 -1 -47 -3z"/>
<path d="M6738 4173 c29 -2 74 -2 100 0 26 2 2 3 -53 3 -55 0 -76 -1 -47 -3z"/>
<path d="M7038 4173 c29 -2 74 -2 100 0 26 2 2 3 -53 3 -55 0 -76 -1 -47 -3z"/>
<path d="M7338 4173 c29 -2 74 -2 100 0 26 2 2 3 -53 3 -55 0 -76 -1 -47 -3z"/>
<path d="M7638 4173 c28 -2 76 -2 105 0 28 2 5 3 -53 3 -58 0 -81 -1 -52 -3z"/>
<path d="M7938 4173 c28 -2 76 -2 105 0 28 2 5 3 -53 3 -58 0 -81 -1 -52 -3z"/>
<path d="M8238 4173 c28 -2 76 -2 105 0 28 2 5 3 -53 3 -58 0 -81 -1 -52 -3z"/>
<path d="M8538 4173 c28 -2 76 -2 105 0 28 2 5 3 -53 3 -58 0 -81 -1 -52 -3z"/>
<path d="M8838 4173 c28 -2 76 -2 105 0 28 2 5 3 -53 3 -58 0 -81 -1 -52 -3z"/>
<path d="M2519 4111 c-16 -16 -29 -38 -29 -48 0 -11 6 -6 17 16 9 19 30 39 47
47 20 9 25 13 13 14 -10 0 -32 -13 -48 -29z"/>
<path d="M3328 4125 c20 -9 38 -27 47 -47 9 -21 14 -26 15 -15 0 10 -13 32
-29 48 -16 16 -38 29 -48 29 -11 -1 -6 -6 15 -15z"/>
<path d="M2820 4020 c0 -27 5 -50 10 -50 6 0 10 9 10 20 0 26 16 26 30 -1 7
-11 14 -18 17 -15 3 3 0 13 -8 22 -11 13 -11 18 -1 21 17 6 15 40 -4 47 -43
17 -54 8 -54 -44z m55 20 c0 -8 -8 -16 -17 -18 -13 -2 -18 3 -18 18 0 15 5 20
18 18 9 -2 17 -10 17 -18z"/>
<path d="M2918 4063 c6 -2 12 -22 12 -43 0 -21 -6 -41 -12 -43 -7 -3 3 -5 22
-5 19 0 29 2 23 5 -7 2 -13 22 -13 43 0 21 6 41 13 43 6 3 -4 5 -23 5 -19 0
-29 -2 -22 -5z"/>
<path d="M3002 4023 l-2 -53 33 1 c29 2 29 2 5 6 -24 4 -27 9 -31 51 l-3 47
-2 -52z"/>
<path d="M1718 4039 c-35 -20 -15 -70 27 -68 18 0 18 1 -3 10 -32 12 -27 54 6
53 12 0 22 3 22 8 0 11 -31 10 -52 -3z"/>
<path d="M1798 4043 c6 -2 12 -12 12 -21 0 -12 3 -13 11 -5 14 14 3 33 -19 32
-11 0 -12 -3 -4 -6z"/>
<path d="M2390 4035 c0 -12 -15 -15 -75 -15 -43 0 -75 -4 -75 -10 0 -6 33 -10
79 -10 75 0 79 -1 74 -21 l-6 -21 42 21 c22 12 41 23 41 26 0 3 -18 14 -40 25
-34 17 -40 18 -40 5z"/>
<path d="M1785 3980 c-4 -6 5 -10 19 -10 14 0 26 5 26 10 0 6 -9 10 -19 10
-11 0 -23 -4 -26 -10z"/>
<path d="M2491 3972 c-1 -28 49 -82 76 -82 12 0 9 5 -12 16 -31 16 -45 33 -57
69 -5 18 -6 18 -7 -3z"/>
<path d="M3373 3950 c-7 -19 -24 -36 -45 -45 -20 -9 -26 -14 -15 -15 22 0 77
52 77 74 0 23 -4 20 -17 -14z"/>
<path d="M6560 3928 c0 -28 2 -49 4 -47 8 9 13 99 5 99 -5 0 -9 -23 -9 -52z"/>
<path d="M6607 3933 c8 -65 13 -67 13 -5 0 29 -4 52 -10 52 -6 0 -7 -19 -3
-47z"/>
<path d="M6652 3933 l-2 -53 33 1 c29 2 29 2 5 6 -24 4 -27 9 -31 51 l-3 47
-2 -52z"/>
<path d="M6741 3928 c1 -29 3 -45 6 -36 2 9 12 19 21 21 15 4 15 5 0 6 -12 1
-18 9 -18 25 0 15 7 26 18 29 13 4 11 5 -5 6 -21 1 -23 -3 -22 -51z"/>
<path d="M6792 3945 c0 -16 2 -22 5 -12 2 9 2 23 0 30 -3 6 -5 -1 -5 -18z"/>
<path d="M6580 3941 c0 -6 5 -13 10 -16 6 -3 10 1 10 9 0 9 -4 16 -10 16 -5 0
-10 -4 -10 -9z"/>
<path d="M1273 3786 c-21 -42 -21 -44 -2 -39 12 4 19 0 19 -9 0 -12 -40 -16
-247 -21 l-248 -6 -168 -63 c-136 -51 -163 -64 -140 -68 36 -7 32 -9 -129 -69
-86 -32 -152 -51 -180 -51 -23 0 -50 -5 -58 -10 -10 -7 59 -10 212 -9 132 0
228 5 230 10 4 13 107 39 113 29 3 -5 -14 -14 -37 -20 -24 -6 -47 -13 -53 -15
-5 -2 292 -4 661 -4 416 -1 674 3 680 9 15 15 632 249 660 250 6 0 18 7 25 17
13 15 -20 16 -466 9 -264 -4 -500 -6 -523 -6 -27 1 -41 -3 -38 -9 4 -6 -12
-15 -36 -21 -24 -6 -51 -13 -60 -16 -10 -3 -18 -1 -18 5 0 6 12 13 28 17 81
18 70 22 -55 23 -111 1 -133 3 -133 16 0 8 7 15 15 15 13 0 12 6 -5 40 -11 22
-22 40 -23 40 -2 0 -13 -20 -24 -44z m1052 -116 c15 -6 7 -9 -30 -9 -36 -1
-46 2 -35 9 18 12 38 12 65 0z m-925 -9 c0 -12 -17 -18 -74 -26 -60 -9 -59 0
2 19 56 17 72 19 72 7z m-184 -50 c-5 -8 -83 -31 -105 -31 -28 0 -6 18 32 27
55 14 79 15 73 4z m-176 -41 c0 -5 -19 -14 -42 -20 -24 -6 -51 -13 -60 -16
-10 -3 -18 -1 -18 5 0 6 19 15 43 21 23 6 47 13 52 15 18 6 25 5 25 -5z m-184
-49 c-5 -8 -83 -31 -105 -31 -28 0 -6 18 32 27 55 14 79 15 73 4z m174 -21 c0
-5 -7 -10 -16 -10 -8 0 -12 5 -9 10 3 6 10 10 16 10 5 0 9 -4 9 -10z m45 0 c3
-6 -4 -10 -17 -10 -18 0 -20 2 -8 10 19 12 18 12 25 0z"/>
<path d="M2730 3305 c0 -25 5 -45 10 -45 6 0 10 16 10 35 0 31 3 35 26 35 14
0 23 4 19 10 -3 6 -19 10 -36 10 -28 0 -29 -2 -29 -45z"/>
<path d="M2860 3340 c0 -6 29 -10 66 -10 41 0 63 4 59 10 -3 6 -33 10 -66 10
-33 0 -59 -4 -59 -10z"/>
<path d="M3045 3340 c-4 -6 18 -10 59 -10 37 0 66 4 66 10 0 6 -26 10 -59 10
-33 0 -63 -4 -66 -10z"/>
<path d="M3235 3340 c-4 -6 18 -10 59 -10 37 0 66 4 66 10 0 6 -26 10 -59 10
-33 0 -63 -4 -66 -10z"/>
<path d="M3420 3340 c0 -6 29 -10 66 -10 41 0 63 4 59 10 -3 6 -33 10 -66 10
-33 0 -59 -4 -59 -10z"/>
<path d="M3610 3340 c0 -5 5 -10 10 -10 6 0 10 -20 10 -45 0 -25 5 -45 10 -45
6 0 10 25 10 55 0 48 -2 55 -20 55 -11 0 -20 -4 -20 -10z"/>
<path d="M4060 3305 c0 -25 5 -45 10 -45 6 0 10 16 10 35 0 31 3 35 26 35 14
0 23 4 19 10 -3 6 -19 10 -36 10 -28 0 -29 -2 -29 -45z"/>
<path d="M4190 3340 c0 -6 29 -10 66 -10 41 0 63 4 59 10 -3 6 -33 10 -66 10
-33 0 -59 -4 -59 -10z"/>
<path d="M4375 3340 c-4 -6 18 -10 59 -10 37 0 66 4 66 10 0 6 -26 10 -59 10
-33 0 -63 -4 -66 -10z"/>
<path d="M4565 3340 c-4 -6 18 -10 59 -10 37 0 66 4 66 10 0 6 -26 10 -59 10
-33 0 -63 -4 -66 -10z"/>
<path d="M4750 3340 c0 -6 29 -10 66 -10 41 0 63 4 59 10 -3 6 -33 10 -66 10
-33 0 -59 -4 -59 -10z"/>
<path d="M4940 3340 c0 -5 5 -10 10 -10 6 0 10 -20 10 -45 0 -25 5 -45 10 -45
6 0 10 25 10 55 0 48 -2 55 -20 55 -11 0 -20 -4 -20 -10z"/>
<path d="M5390 3305 c0 -25 5 -45 10 -45 6 0 10 16 10 35 0 31 3 35 26 35 14
0 23 4 19 10 -3 6 -19 10 -36 10 -28 0 -29 -2 -29 -45z"/>
<path d="M5520 3340 c0 -6 29 -10 66 -10 41 0 63 4 59 10 -3 6 -33 10 -66 10
-33 0 -59 -4 -59 -10z"/>
<path d="M5705 3340 c-4 -6 18 -10 59 -10 37 0 66 4 66 10 0 6 -26 10 -59 10
-33 0 -63 -4 -66 -10z"/>
<path d="M5895 3340 c-4 -6 18 -10 59 -10 37 0 66 4 66 10 0 6 -26 10 -59 10
-33 0 -63 -4 -66 -10z"/>
<path d="M6080 3340 c0 -6 29 -10 66 -10 41 0 63 4 59 10 -3 6 -33 10 -66 10
-33 0 -59 -4 -59 -10z"/>
<path d="M6270 3340 c0 -5 5 -10 10 -10 6 0 10 -20 10 -45 0 -25 5 -45 10 -45
6 0 10 25 10 55 0 48 -2 55 -20 55 -11 0 -20 -4 -20 -10z"/>
<path d="M6720 3305 c0 -25 5 -45 10 -45 6 0 10 16 10 35 0 31 3 35 26 35 14
0 23 4 19 10 -3 6 -19 10 -36 10 -28 0 -29 -2 -29 -45z"/>
<path d="M6850 3340 c0 -6 29 -10 66 -10 41 0 63 4 59 10 -3 6 -33 10 -66 10
-33 0 -59 -4 -59 -10z"/>
<path d="M7035 3340 c-4 -6 18 -10 59 -10 37 0 66 4 66 10 0 6 -26 10 -59 10
-33 0 -63 -4 -66 -10z"/>
<path d="M7225 3340 c-4 -6 18 -10 59 -10 37 0 66 4 66 10 0 6 -26 10 -59 10
-33 0 -63 -4 -66 -10z"/>
<path d="M7410 3340 c0 -6 29 -10 66 -10 41 0 63 4 59 10 -3 6 -33 10 -66 10
-33 0 -59 -4 -59 -10z"/>
<path d="M7600 3340 c0 -5 5 -10 10 -10 6 0 10 -20 10 -45 0 -25 5 -45 10 -45
6 0 10 25 10 55 0 48 -2 55 -20 55 -11 0 -20 -4 -20 -10z"/>
<path d="M8267 3333 c-11 -10 -8 -73 3 -73 6 0 10 14 10 30 0 25 4 30 25 30
14 0 25 5 25 10 0 11 -53 14 -63 3z"/>
<path d="M8390 3330 c0 -6 28 -10 65 -10 37 0 65 4 65 10 0 6 -28 10 -65 10
-37 0 -65 -4 -65 -10z"/>
<path d="M8580 3330 c0 -6 28 -10 65 -10 37 0 65 4 65 10 0 6 -28 10 -65 10
-37 0 -65 -4 -65 -10z"/>
<path d="M8770 3330 c0 -6 27 -10 60 -10 33 0 60 4 60 10 0 6 -27 10 -60 10
-33 0 -60 -4 -60 -10z"/>
<path d="M8950 3330 c0 -6 28 -10 65 -10 37 0 65 4 65 10 0 6 -28 10 -65 10
-37 0 -65 -4 -65 -10z"/>
<path d="M9140 3331 c0 -6 7 -11 15 -11 11 0 15 -12 15 -47 0 -33 3 -44 11
-36 5 5 9 30 7 54 -2 37 -7 45 -25 47 -13 2 -23 -1 -23 -7z"/>
<path d="M7748 3302 c-3 -12 -3 -21 1 -20 17 2 20 -4 11 -27 -8 -20 -6 -23 7
-18 13 5 15 0 11 -25 -3 -20 0 -32 7 -32 7 0 9 13 7 35 -2 19 -8 35 -14 35 -5
0 -8 6 -7 13 1 6 -2 23 -8 36 -10 24 -10 24 -15 3z"/>
<path d="M7928 3302 c-3 -12 -3 -21 1 -20 17 2 20 -4 10 -29 -6 -17 -6 -24 0
-18 14 15 15 37 4 64 -10 24 -10 24 -15 3z"/>
<path d="M8138 3302 c-3 -12 -3 -21 1 -20 17 2 20 -4 10 -29 -6 -17 -6 -24 0
-18 14 15 15 37 4 64 -10 24 -10 24 -15 3z"/>
<path d="M1698 3289 c-35 -20 -15 -70 27 -68 18 0 18 1 -3 10 -32 12 -27 54 6
53 12 0 22 3 22 8 0 11 -31 10 -52 -3z"/>
<path d="M1778 3293 c6 -2 12 -12 12 -21 0 -12 3 -13 11 -5 14 14 3 33 -19 32
-11 0 -12 -3 -4 -6z"/>
<path d="M7712 3278 c-7 -7 -11 -23 -11 -37 l2 -26 4 25 c3 14 10 31 15 38 13
15 6 16 -10 0z"/>
<path d="M7892 3278 c-7 -7 -11 -23 -11 -37 l2 -26 4 25 c3 14 10 31 15 38 13
15 6 16 -10 0z"/>
<path d="M8102 3278 c-7 -7 -11 -23 -11 -37 l2 -26 4 25 c3 14 10 31 15 38 13
15 6 16 -10 0z"/>
<path d="M7982 3236 c7 -8 15 -12 17 -11 5 6 -10 25 -20 25 -5 0 -4 -6 3 -14z"/>
<path d="M1765 3230 c-4 -6 5 -10 19 -10 14 0 26 5 26 10 0 6 -9 10 -19 10
-11 0 -23 -4 -26 -10z"/>
<path d="M4548 3229 c-24 -13 -25 -84 -2 -93 25 -9 54 -7 54 5 0 5 -4 8 -9 5
-13 -9 -39 3 -45 20 -10 25 13 57 35 51 13 -3 19 -1 16 6 -5 16 -28 19 -49 6z"/>
<path d="M7208 3229 c-24 -13 -25 -84 -2 -93 25 -9 54 -7 54 5 0 5 -4 8 -9 5
-13 -9 -39 3 -45 20 -10 25 13 57 35 51 13 -3 19 -1 16 6 -5 16 -28 19 -49 6z"/>
<path d="M8956 3224 c-8 -22 -7 -97 2 -111 4 -6 7 20 7 58 0 38 -1 69 -1 69
-1 0 -5 -7 -8 -16z"/>
<path d="M2636 3215 c5 -13 -20 -15 -195 -15 -127 0 -201 -4 -201 -10 0 -6 74
-10 201 -10 175 0 200 -2 195 -15 -3 -8 -3 -15 -1 -15 11 0 75 34 75 40 0 6
-64 40 -75 40 -2 0 -2 -7 1 -15z"/>
<path d="M3082 3218 c-7 -7 -12 -24 -12 -38 0 -32 17 -50 47 -50 18 0 23 6 23
25 0 17 -5 25 -17 24 -11 0 -13 -3 -5 -6 19 -8 14 -33 -7 -33 -23 0 -35 31
-26 61 5 16 13 20 31 16 13 -2 21 0 18 4 -8 13 -38 11 -52 -3z"/>
<path d="M3167 3183 c-7 -26 -12 -50 -9 -53 3 -3 7 1 9 8 6 15 35 16 51 0 15
-15 15 -13 -2 41 -7 25 -18 47 -24 49 -6 2 -17 -18 -25 -45z m35 2 c4 -17 1
-25 -8 -25 -14 0 -19 31 -7 43 9 10 10 9 15 -18z"/>
<path d="M3251 3178 c1 -29 3 -45 6 -35 2 9 13 17 23 17 11 0 23 8 29 17 13
25 -5 53 -34 53 -24 0 -25 -3 -24 -52z m44 17 c0 -11 -8 -21 -17 -23 -14 -3
-18 3 -18 23 0 20 4 26 18 23 9 -2 17 -12 17 -23z"/>
<path d="M3940 3215 c0 -13 -19 -15 -115 -15 -70 0 -115 -4 -115 -10 0 -6 45
-10 115 -10 109 0 115 -1 115 -20 l0 -20 40 20 c22 11 40 22 40 25 0 3 -18 14
-40 25 -34 17 -40 18 -40 5z"/>
<path d="M4451 3178 c1 -29 4 -43 6 -31 2 13 13 24 26 26 l22 4 -22 2 c-38 2
-30 39 10 44 31 4 31 4 -5 5 l-38 2 1 -52z"/>
<path d="M5680 3181 c0 -28 5 -51 10 -51 6 0 10 9 10 20 0 26 14 25 32 -1 13
-20 14 -18 13 27 0 48 -1 49 -32 52 l-33 3 0 -50z m55 19 c0 -8 -8 -16 -17
-18 -13 -2 -18 3 -18 18 0 15 5 20 18 18 9 -2 17 -10 17 -18z"/>
<path d="M5860 3180 l0 -50 38 1 c30 2 32 3 10 6 -26 4 -28 8 -28 49 0 24 -4
44 -10 44 -5 0 -10 -22 -10 -50z"/>
<path d="M5952 3183 c3 -46 4 -48 33 -48 29 0 30 2 33 48 2 26 -1 47 -7 47 -5
0 -11 -19 -13 -42 -4 -59 -28 -63 -28 -4 0 26 -5 46 -11 46 -6 0 -9 -19 -7
-47z"/>
<path d="M7111 3178 c1 -29 4 -43 6 -31 2 13 13 24 26 26 l22 4 -22 2 c-38 2
-30 39 10 44 31 4 31 4 -5 5 l-38 2 1 -52z"/>
<path d="M8361 3217 c-9 -11 -10 -17 -2 -17 6 0 11 -9 11 -19 0 -14 -8 -21
-27 -24 l-28 -4 27 -2 c16 0 28 -8 31 -18 4 -17 5 -17 6 0 0 9 7 17 14 17 9 0
9 2 0 8 -6 4 -13 23 -15 41 -3 31 -4 33 -17 18z"/>
<path d="M8438 3223 c6 -2 18 -2 25 0 6 3 1 5 -13 5 -14 0 -19 -2 -12 -5z"/>
<path d="M8886 3215 c4 -8 8 -15 10 -15 2 0 4 7 4 15 0 8 -4 15 -10 15 -5 0
-7 -7 -4 -15z"/>
<path d="M5270 3205 c0 -13 -19 -15 -115 -15 -70 0 -115 -4 -115 -10 0 -6 45
-10 115 -10 96 0 115 -3 115 -15 0 -19 7 -18 49 4 l35 19 -42 21 c-35 18 -42
19 -42 6z"/>
<path d="M8178 3213 c6 -2 12 -9 12 -14 0 -4 -7 -6 -15 -3 -9 4 -15 0 -15 -10
0 -14 -25 -16 -230 -16 -147 0 -230 -4 -230 -10 0 -6 85 -10 235 -10 204 0
234 -2 229 -15 -8 -19 -3 -19 41 2 39 19 44 29 16 38 -10 3 -21 15 -24 25 -3
11 -11 20 -19 19 -10 0 -10 -2 0 -6z"/>
<path d="M9133 3170 c0 -30 2 -43 4 -27 2 15 2 39 0 55 -2 15 -4 2 -4 -28z"/>
<path d="M2730 3145 c0 -37 4 -65 10 -65 6 0 10 28 10 65 0 37 -4 65 -10 65
-6 0 -10 -28 -10 -65z"/>
<path d="M4060 3145 c0 -37 4 -65 10 -65 6 0 10 28 10 65 0 37 -4 65 -10 65
-6 0 -10 -28 -10 -65z"/>
<path d="M5390 3145 c0 -37 4 -65 10 -65 6 0 10 28 10 65 0 37 -4 65 -10 65
-6 0 -10 -28 -10 -65z"/>
<path d="M5780 3191 c-16 -31 3 -61 38 -60 27 1 27 1 3 8 -35 9 -39 31 -6 31
20 0 26 4 23 18 -5 25 -44 27 -58 3z m45 -1 c3 -5 -3 -10 -15 -10 -12 0 -18 5
-15 10 3 6 10 10 15 10 5 0 12 -4 15 -10z"/>
<path d="M6720 3145 c0 -37 4 -65 10 -65 6 0 10 28 10 65 0 37 -4 65 -10 65
-6 0 -10 -28 -10 -65z"/>
<path d="M6586 3185 c5 -13 -11 -15 -115 -15 -74 0 -121 -4 -121 -10 0 -6 47
-10 121 -10 104 0 120 -2 115 -15 -3 -8 -3 -15 -1 -15 11 0 75 34 75 40 0 6
-64 40 -75 40 -2 0 -2 -7 1 -15z"/>
<path d="M8267 3193 c-11 -10 -8 -123 3 -123 6 0 10 28 10 65 0 65 -1 71 -13
58z"/>
<path d="M8431 3193 c9 -2 21 -14 27 -26 7 -15 11 -17 11 -6 1 20 -19 39 -38
38 -14 -1 -14 -2 0 -6z"/>
<path d="M8668 3195 c-7 -7 4 -75 12 -75 4 0 5 12 2 26 -3 15 1 29 7 34 10 5
9 9 -2 13 -8 3 -17 4 -19 2z"/>
<path d="M9030 3192 c0 -7 5 -12 11 -12 7 0 9 -11 5 -27 -5 -27 -5 -27 6 -5 9
19 8 26 -5 40 -11 10 -17 12 -17 4z"/>
<path d="M7968 3183 c6 -2 18 -2 25 0 6 3 1 5 -13 5 -14 0 -19 -2 -12 -5z"/>
<path d="M8559 3178 c11 -15 11 -21 0 -35 -13 -16 -12 -17 4 -4 14 11 20 11
35 0 15 -13 16 -12 3 4 -11 14 -11 20 0 35 13 15 12 16 -3 3 -15 -11 -21 -11
-35 0 -16 13 -17 12 -4 -3z"/>
<path d="M8722 3178 c-15 -19 -19 -50 -7 -55 6 -2 11 9 10 24 0 19 6 29 18 31
16 3 18 -1 13 -30 -4 -25 -4 -28 3 -13 16 33 13 55 -8 55 -10 0 -23 -6 -29
-12z"/>
<path d="M8794 3159 c-1 -20 2 -26 7 -17 11 16 12 48 2 48 -5 0 -8 -14 -9 -31z"/>
<path d="M8836 3175 c4 -8 8 -15 10 -15 2 0 4 7 4 15 0 8 -4 15 -10 15 -5 0
-7 -7 -4 -15z"/>
<path d="M8881 3178 c0 -9 -4 -25 -7 -35 -5 -17 -5 -17 6 0 6 10 9 25 7 35 -4
15 -5 15 -6 0z"/>
<path d="M8913 3152 c-1 -28 1 -32 7 -17 11 26 12 55 3 55 -5 0 -9 -17 -10
-38z"/>
<path d="M9002 3178 c-7 -7 -11 -23 -11 -37 l2 -26 4 25 c3 14 10 31 15 38 13
15 6 16 -10 0z"/>
<path d="M3630 3115 c0 -37 4 -65 10 -65 6 0 10 28 10 65 0 37 -4 65 -10 65
-6 0 -10 -28 -10 -65z"/>
<path d="M4960 3115 c0 -37 4 -65 10 -65 6 0 10 28 10 65 0 37 -4 65 -10 65
-6 0 -10 -28 -10 -65z"/>
<path d="M6290 3115 c0 -37 4 -65 10 -65 6 0 10 28 10 65 0 37 -4 65 -10 65
-6 0 -10 -28 -10 -65z"/>
<path d="M7620 3115 c0 -37 4 -65 10 -65 6 0 10 28 10 65 0 37 -4 65 -10 65
-6 0 -10 -28 -10 -65z"/>
<path d="M9170 3116 c0 -37 4 -66 10 -66 6 0 10 26 10 59 0 33 -4 63 -10 66
-6 4 -10 -18 -10 -59z"/>
<path d="M8831 3134 c0 -11 3 -14 6 -6 3 7 2 16 -1 19 -3 4 -6 -2 -5 -13z"/>
<path d="M8418 3123 c7 -3 16 -2 19 1 4 3 -2 6 -13 5 -11 0 -14 -3 -6 -6z"/>
<path d="M9065 3120 c3 -5 8 -10 11 -10 2 0 4 5 4 10 0 6 -5 10 -11 10 -5 0
-7 -4 -4 -10z"/>
<path d="M1980 3060 c0 -5 3 -10 8 -10 4 0 90 -9 192 -20 448 -47 1834 -164
2550 -215 147 -11 1064 -74 1087 -75 1 0 -1 -8 -4 -17 -5 -13 -3 -15 13 -9 10
5 32 13 48 18 l29 11 -39 23 c-45 28 -56 30 -48 9 4 -10 0 -15 -14 -15 -33 0
-900 59 -1032 70 -69 6 -278 22 -465 36 -772 56 -2163 178 -2292 199 -20 4
-33 2 -33 -5z"/>
<path d="M1285 3010 c-21 -41 -19 -70 10 -123 13 -26 22 -53 19 -60 -3 -9 8
-17 33 -25 20 -6 39 -10 40 -8 2 2 -4 23 -13 47 -10 23 -20 37 -22 31 -7 -21
-22 -13 -42 21 -24 38 -25 78 -5 117 9 17 11 30 6 30 -6 0 -17 -13 -26 -30z"/>
<path d="M1726 3031 c16 -16 194 -68 339 -100 328 -71 830 -142 1126 -158 103
-5 122 -9 126 -23 4 -16 8 -17 44 -2 21 8 39 18 39 22 0 6 -64 40 -76 40 -4 0
-3 -7 0 -16 7 -17 7 -17 -274 7 -428 37 -1033 142 -1254 219 -65 22 -86 25
-70 11z"/>
<path d="M2730 3020 c0 -6 26 -10 59 -10 33 0 63 5 66 10 4 6 -18 10 -59 10
-37 0 -66 -4 -66 -10z"/>
<path d="M2920 3020 c0 -6 26 -10 59 -10 33 0 63 5 66 10 4 6 -18 10 -59 10
-37 0 -66 -4 -66 -10z"/>
<path d="M3110 3020 c0 -6 27 -10 60 -10 33 0 60 4 60 10 0 6 -27 10 -60 10
-33 0 -60 -4 -60 -10z"/>
<path d="M3295 3020 c3 -5 33 -10 66 -10 33 0 59 4 59 10 0 6 -29 10 -66 10
-41 0 -63 -4 -59 -10z"/>
<path d="M3485 3020 c3 -5 33 -10 66 -10 33 0 59 4 59 10 0 6 -29 10 -66 10
-41 0 -63 -4 -59 -10z"/>
<path d="M4060 3020 c0 -6 26 -10 59 -10 33 0 63 5 66 10 4 6 -18 10 -59 10
-37 0 -66 -4 -66 -10z"/>
<path d="M4250 3020 c0 -6 26 -10 59 -10 33 0 63 5 66 10 4 6 -18 10 -59 10
-37 0 -66 -4 -66 -10z"/>
<path d="M4440 3020 c0 -6 27 -10 60 -10 33 0 60 4 60 10 0 6 -27 10 -60 10
-33 0 -60 -4 -60 -10z"/>
<path d="M4625 3020 c3 -5 33 -10 66 -10 33 0 59 4 59 10 0 6 -29 10 -66 10
-41 0 -63 -4 -59 -10z"/>
<path d="M4815 3020 c3 -5 33 -10 66 -10 33 0 59 4 59 10 0 6 -29 10 -66 10
-41 0 -63 -4 -59 -10z"/>
<path d="M5390 3020 c0 -6 26 -10 59 -10 33 0 63 5 66 10 4 6 -18 10 -59 10
-37 0 -66 -4 -66 -10z"/>
<path d="M5580 3020 c0 -6 26 -10 59 -10 33 0 63 5 66 10 4 6 -18 10 -59 10
-37 0 -66 -4 -66 -10z"/>
<path d="M5770 3020 c0 -6 27 -10 60 -10 33 0 60 4 60 10 0 6 -27 10 -60 10
-33 0 -60 -4 -60 -10z"/>
<path d="M5955 3020 c3 -5 33 -10 66 -10 33 0 59 4 59 10 0 6 -29 10 -66 10
-41 0 -63 -4 -59 -10z"/>
<path d="M6145 3020 c3 -5 33 -10 66 -10 33 0 59 4 59 10 0 6 -29 10 -66 10
-41 0 -63 -4 -59 -10z"/>
<path d="M6720 3020 c0 -6 26 -10 59 -10 33 0 63 5 66 10 4 6 -18 10 -59 10
-37 0 -66 -4 -66 -10z"/>
<path d="M6910 3020 c0 -6 26 -10 59 -10 33 0 63 5 66 10 4 6 -18 10 -59 10
-37 0 -66 -4 -66 -10z"/>
<path d="M7100 3020 c0 -6 27 -10 60 -10 33 0 60 4 60 10 0 6 -27 10 -60 10
-33 0 -60 -4 -60 -10z"/>
<path d="M7285 3020 c3 -5 33 -10 66 -10 33 0 59 4 59 10 0 6 -29 10 -66 10
-41 0 -63 -4 -59 -10z"/>
<path d="M7475 3020 c3 -5 33 -10 66 -10 33 0 59 4 59 10 0 6 -29 10 -66 10
-41 0 -63 -4 -59 -10z"/>
<path d="M8265 3020 c-4 -6 18 -10 59 -10 37 0 66 4 66 10 0 6 -26 10 -59 10
-33 0 -63 -4 -66 -10z"/>
<path d="M8450 3020 c0 -6 28 -10 65 -10 37 0 65 4 65 10 0 6 -28 10 -65 10
-37 0 -65 -4 -65 -10z"/>
<path d="M8640 3020 c0 -6 28 -10 65 -10 37 0 65 4 65 10 0 6 -28 10 -65 10
-37 0 -65 -4 -65 -10z"/>
<path d="M8830 3020 c0 -6 28 -10 65 -10 37 0 65 4 65 10 0 6 -28 10 -65 10
-37 0 -65 -4 -65 -10z"/>
<path d="M9020 3020 c0 -6 27 -10 60 -10 33 0 60 4 60 10 0 6 -27 10 -60 10
-33 0 -60 -4 -60 -10z"/>
<path d="M8718 2994 c-5 -4 -8 -97 -8 -206 0 -170 -2 -198 -15 -198 -13 0 -12
-7 6 -42 l21 -42 19 35 c22 42 23 49 4 49 -12 0 -15 32 -17 206 -2 113 -6 202
-10 198z"/>
<path d="M7820 2549 c0 -11 -5 -30 -11 -42 -10 -21 -10 -21 5 -3 15 18 22 66
11 66 -3 0 -5 -9 -5 -21z"/>
<path d="M7765 2529 c-9 -17 -15 -34 -13 -39 2 -5 11 9 20 30 20 47 15 53 -7
9z"/>
<path d="M5313 2524 c4 -7 0 -29 -9 -49 -8 -20 -11 -34 -6 -31 5 3 15 19 22
36 11 25 10 33 0 43 -9 8 -11 8 -7 1z"/>
<path d="M2842 2483 c-10 -34 -10 -36 3 -19 13 17 21 56 12 56 -2 0 -9 -17
-15 -37z"/>
<path d="M7621 2506 c-20 -24 -16 -75 6 -98 29 -28 110 -31 125 -5 5 10 8 20
6 22 -7 7 -48 -7 -48 -16 0 -17 -50 -9 -70 11 -23 23 -25 42 -9 72 13 24 6 34
-10 14z"/>
<path d="M2632 2498 c-28 -35 -14 -102 25 -115 39 -13 93 -9 104 8 14 22 11
27 -16 21 -14 -2 -25 -8 -25 -13 0 -15 -44 -10 -68 7 -24 17 -28 44 -11 76 12
23 7 34 -9 16z"/>
<path d="M2792 2485 c-7 -14 -12 -31 -12 -38 1 -7 7 3 16 22 17 39 13 54 -4
16z"/>
<path d="M7830 2506 c0 -2 7 -6 15 -10 8 -3 15 -1 15 4 0 6 -7 10 -15 10 -8 0
-15 -2 -15 -4z"/>
<path d="M5102 2488 c-16 -16 -15 -70 2 -93 8 -11 32 -21 63 -25 42 -5 52 -3
62 12 16 26 14 28 -20 28 -17 0 -28 -4 -24 -10 4 -6 -6 -10 -24 -10 -42 0 -66
36 -51 75 12 32 9 40 -8 23z"/>
<path d="M5253 2483 c-3 -10 -8 -22 -10 -28 -3 -5 3 -1 11 9 16 20 21 36 11
36 -3 0 -8 -8 -12 -17z"/>
<path d="M7840 2476 c0 -2 7 -7 16 -10 8 -3 12 -2 9 4 -6 10 -25 14 -25 6z"/>
<path d="M5336 2463 c6 -4 14 -15 17 -23 5 -11 6 -9 4 4 -1 11 -9 21 -17 23
-10 3 -11 2 -4 -4z"/>
<path d="M8260 2436 c0 -19 5 -38 10 -41 6 -4 10 7 10 24 0 26 4 31 25 31 14
0 25 5 25 10 0 6 -16 10 -35 10 -33 0 -35 -2 -35 -34z"/>
<path d="M8390 2460 c0 -6 28 -10 65 -10 37 0 65 4 65 10 0 6 -28 10 -65 10
-37 0 -65 -4 -65 -10z"/>
<path d="M8580 2460 c0 -6 26 -10 59 -10 33 0 63 5 66 10 4 6 -18 10 -59 10
-37 0 -66 -4 -66 -10z"/>
<path d="M8770 2460 c0 -6 27 -10 60 -10 33 0 60 4 60 10 0 6 -27 10 -60 10
-33 0 -60 -4 -60 -10z"/>
<path d="M8955 2460 c3 -5 33 -10 66 -10 33 0 59 4 59 10 0 6 -29 10 -66 10
-41 0 -63 -4 -59 -10z"/>
<path d="M9140 2460 c0 -5 7 -10 15 -10 11 0 15 -11 15 -40 0 -22 5 -40 10
-40 6 0 10 23 10 50 0 47 -2 50 -25 50 -14 0 -25 -4 -25 -10z"/>
<path d="M5338 2403 c7 -3 16 -2 19 1 4 3 -2 6 -13 5 -11 0 -14 -3 -6 -6z"/>
<path d="M8436 2359 c-25 -29 -37 -99 -18 -99 4 0 8 12 7 28 0 22 5 28 28 30
26 3 28 2 17 -18 -6 -12 -9 -24 -7 -27 3 -3 13 9 21 26 17 32 22 91 7 91 -4 0
-6 -11 -3 -25 5 -26 -13 -40 -43 -33 -15 3 -14 6 5 31 29 37 18 34 -14 -4z"/>
<path d="M8666 2359 c-25 -29 -37 -99 -18 -99 4 0 8 12 7 28 0 22 5 28 28 30
26 3 28 2 17 -18 -6 -12 -9 -24 -7 -27 3 -3 13 9 21 26 17 32 22 91 7 91 -4 0
-6 -11 -3 -25 5 -26 -13 -40 -43 -33 -15 3 -14 6 5 31 29 37 18 34 -14 -4z"/>
<path d="M8906 2359 c-25 -29 -37 -99 -18 -99 4 0 8 12 7 28 0 22 5 28 28 30
26 3 28 2 17 -18 -6 -12 -9 -24 -7 -27 3 -3 13 9 21 26 17 32 22 91 7 91 -4 0
-6 -11 -3 -25 5 -26 -13 -40 -43 -33 -15 3 -14 6 5 31 29 37 18 34 -14 -4z"/>
<path d="M8260 2293 c0 -32 -6 -43 -36 -67 -20 -16 -47 -28 -60 -28 -27 0 -97
49 -89 62 4 7 -25 19 -47 20 -3 0 -1 -13 5 -30 6 -16 14 -25 17 -20 3 5 25 -4
49 -21 53 -35 86 -37 126 -5 27 22 31 22 42 7 10 -13 12 -4 13 52 0 38 -4 67
-10 67 -5 0 -10 -17 -10 -37z"/>
<path d="M9170 2245 c0 -42 4 -64 10 -60 6 3 10 30 10 60 0 30 -4 57 -10 60
-6 4 -10 -18 -10 -60z"/>
<path d="M2391 2248 c1 -29 4 -43 6 -30 5 28 17 28 35 1 13 -20 14 -18 13 27
0 46 -2 49 -27 52 -28 3 -28 3 -27 -50z m49 22 c0 -13 -7 -20 -20 -20 -13 0
-20 7 -20 20 0 13 7 20 20 20 13 0 20 -7 20 -20z"/>
<path d="M2480 2289 c0 -5 5 -7 10 -4 6 4 10 -10 10 -34 0 -22 -5 -42 -12 -44
-7 -3 3 -5 22 -5 19 0 29 2 23 5 -8 3 -13 23 -13 49 0 37 -3 44 -20 44 -11 0
-20 -5 -20 -11z"/>
<path d="M8505 2250 c0 -22 5 -40 10 -40 6 0 9 17 7 40 -2 22 -7 40 -11 40 -3
0 -6 -18 -6 -40z"/>
<path d="M8735 2280 c-3 -6 1 -7 9 -4 22 8 21 -24 -1 -48 -15 -17 -15 -18 13
-17 24 0 26 2 10 8 -14 5 -16 10 -8 15 17 10 15 56 -2 56 -8 0 -18 -4 -21 -10z"/>
<path d="M8995 2270 c1 -11 4 -23 8 -26 12 -12 8 -22 -10 -28 -14 -4 -13 -4 2
-3 16 2 20 10 20 37 -1 18 -6 35 -11 37 -6 2 -10 -5 -9 -17z"/>
<path d="M8570 2270 c0 -5 5 -10 10 -10 6 0 10 5 10 10 0 6 -4 10 -10 10 -5 0
-10 -4 -10 -10z"/>
<path d="M8820 2270 c0 -5 5 -10 10 -10 6 0 10 5 10 10 0 6 -4 10 -10 10 -5 0
-10 -4 -10 -10z"/>
<path d="M4871 2218 c1 -29 4 -43 6 -30 5 28 17 28 35 1 13 -20 14 -18 13 27
0 46 -2 49 -27 52 -28 3 -28 3 -27 -50z m49 22 c0 -13 -7 -20 -20 -20 -13 0
-20 7 -20 20 0 13 7 20 20 20 13 0 20 -7 20 -20z"/>
<path d="M4960 2261 c0 -5 9 -7 20 -4 15 4 20 0 20 -14 0 -11 -9 -28 -20 -38
-28 -26 -25 -35 13 -34 23 1 26 3 10 6 l-23 4 22 29 c11 16 18 36 15 44 -7 17
-57 23 -57 7z"/>
<path d="M7371 2198 c1 -29 4 -43 6 -30 2 12 10 22 17 22 8 0 21 -10 30 -22
l17 -23 -11 23 c-9 17 -8 27 1 38 16 19 -5 44 -37 44 -22 0 -24 -4 -23 -52z
m54 22 c0 -8 -10 -16 -22 -18 -18 -3 -23 2 -23 18 0 16 5 21 23 18 12 -2 22
-10 22 -18z"/>
<path d="M7493 2243 c9 -2 17 -8 17 -13 0 -5 -8 -14 -17 -19 -10 -6 -13 -11
-7 -11 17 0 37 27 29 40 -3 5 -14 9 -23 9 -15 -1 -15 -2 1 -6z"/>
<path d="M7511 2183 c-1 -16 -9 -23 -28 -26 l-28 -4 28 -2 c28 -1 43 17 34 41
-3 7 -6 3 -6 -9z"/>
<path d="M8265 2150 c3 -5 33 -10 66 -10 33 0 59 4 59 10 0 6 -29 10 -66 10
-41 0 -63 -4 -59 -10z"/>
<path d="M8450 2150 c0 -6 28 -10 65 -10 37 0 65 4 65 10 0 6 -28 10 -65 10
-37 0 -65 -4 -65 -10z"/>
<path d="M8640 2150 c0 -6 28 -10 65 -10 37 0 65 4 65 10 0 6 -28 10 -65 10
-37 0 -65 -4 -65 -10z"/>
<path d="M8830 2150 c0 -6 26 -10 59 -10 33 0 63 5 66 10 4 6 -18 10 -59 10
-37 0 -66 -4 -66 -10z"/>
<path d="M9020 2150 c0 -6 27 -10 60 -10 33 0 60 4 60 10 0 6 -27 10 -60 10
-33 0 -60 -4 -60 -10z"/>
<path d="M1430 2114 c0 -31 -3 -36 -20 -31 -19 5 -19 4 2 -37 11 -22 22 -43
24 -44 1 -2 12 14 24 37 17 34 18 41 5 41 -11 0 -15 10 -15 35 0 19 -4 35 -10
35 -5 0 -10 -16 -10 -36z"/>
<path d="M6420 2115 c0 -24 -5 -35 -15 -35 -19 0 -18 -7 4 -49 l19 -35 21 42
c18 35 19 42 6 42 -11 0 -15 10 -15 35 0 19 -4 35 -10 35 -5 0 -10 -16 -10
-35z"/>
<path d="M3880 2104 c0 -31 -3 -36 -20 -31 -19 5 -19 4 2 -37 11 -22 22 -43
24 -44 1 -2 12 14 24 37 17 34 18 41 5 41 -11 0 -15 10 -15 35 0 19 -4 35 -10
35 -5 0 -10 -16 -10 -36z"/>
<path d="M998 1963 c-38 -24 -48 -53 -48 -147 0 -97 17 -128 78 -146 25 -8
181 -10 477 -8 404 3 442 4 466 21 40 27 52 65 47 158 -3 77 -5 82 -36 110
l-32 29 -463 0 c-413 -1 -465 -2 -489 -17z m978 -27 c33 -33 34 -37 34 -107 0
-93 -21 -133 -77 -148 -24 -7 -193 -11 -456 -11 -448 0 -466 2 -501 51 -20 29
-22 162 -2 198 28 50 29 50 514 51 l454 0 34 -34z"/>
<path d="M1360 1830 c0 -27 5 -50 10 -50 6 0 10 9 10 20 0 11 4 20 10 20 5 0
14 -9 20 -20 6 -11 16 -20 22 -20 7 0 6 5 -2 15 -10 12 -10 22 -2 39 13 30 -1
46 -40 46 -27 0 -28 -2 -28 -50z m55 20 c0 -8 -8 -16 -17 -18 -13 -2 -18 3
-18 18 0 15 5 20 18 18 9 -2 17 -10 17 -18z"/>
<path d="M1450 1830 c0 -27 5 -50 10 -50 6 0 10 9 10 19 0 12 8 21 23 24 l22
4 -22 2 c-35 2 -31 39 5 44 22 3 20 4 -10 6 l-38 1 0 -50z"/>
<path d="M1541 1828 c1 -29 4 -43 6 -30 5 27 29 29 38 2 3 -11 11 -20 16 -20
6 0 5 8 -1 21 -9 15 -8 24 1 35 16 19 -5 44 -37 44 -22 0 -24 -4 -23 -52z m49
22 c0 -13 -7 -20 -20 -20 -13 0 -20 7 -20 20 0 13 7 20 20 20 13 0 20 -7 20
-20z"/>
<path d="M3408 1951 c-30 -27 -33 -34 -36 -105 -5 -92 0 -115 33 -148 l25 -25
-502 -6 c-493 -5 -652 -12 -953 -43 -283 -28 -528 -76 -659 -129 -52 -21 -63
-23 -72 -10 -8 11 -15 5 -32 -31 l-22 -44 28 6 c54 12 61 15 56 28 -14 36 256
109 521 141 418 52 690 65 1275 64 399 -1 831 -12 674 -17 -54 -2 -337 -16
-644 -32 -543 -29 -1222 -98 -1608 -165 -79 -14 -145 -25 -147 -25 -2 0 -5 7
-7 15 -2 12 -11 10 -41 -12 -41 -29 -40 -31 27 -47 23 -6 27 -4 23 8 -7 18 -6
18 123 41 322 57 894 119 1430 155 144 9 233 14 770 40 455 21 1154 32 1948
29 463 -2 842 -1 842 3 0 4 -69 9 -152 11 -84 1 5 4 197 5 207 1 365 6 388 13
58 16 77 55 77 158 0 81 -1 84 -34 117 l-34 34 -467 0 -467 0 -34 -34 c-33
-33 -34 -36 -34 -118 0 -99 20 -142 72 -156 20 -5 -322 -12 -862 -16 -492 -4
-978 -11 -1080 -14 -102 -4 -187 -4 -190 0 -3 3 -23 8 -45 11 -22 2 92 4 253
5 388 3 392 4 392 167 0 96 -10 120 -57 144 -15 8 -163 11 -482 11 l-461 0
-32 -29z m998 -14 c21 -25 24 -38 24 -110 0 -60 -4 -89 -16 -106 -35 -49 -53
-51 -501 -51 -263 0 -432 4 -456 11 -59 16 -79 56 -75 152 3 75 5 80 36 108
l33 30 465 -3 466 -3 24 -28z m2499 21 c40 -18 55 -57 55 -140 0 -84 -14 -112
-66 -134 -49 -21 -869 -21 -918 0 -53 22 -66 50 -66 136 1 81 13 115 51 136
33 18 905 20 944 2z"/>
<path d="M3791 1828 c1 -29 4 -43 6 -30 5 27 29 29 38 2 3 -11 11 -20 16 -20
6 0 5 8 -1 21 -9 15 -8 24 1 35 16 19 -5 44 -37 44 -22 0 -24 -4 -23 -52z m49
22 c0 -13 -7 -20 -20 -20 -13 0 -20 7 -20 20 0 13 7 20 20 20 13 0 20 -7 20
-20z"/>
<path d="M3881 1828 c1 -29 4 -43 6 -31 2 13 13 24 26 26 l22 4 -22 2 c-38 2
-30 39 10 44 31 4 31 4 -5 5 l-38 2 1 -52z"/>
<path d="M3960 1830 c0 -27 5 -50 10 -50 6 0 10 9 10 20 0 11 4 20 10 20 5 0
14 -9 20 -20 6 -11 16 -20 22 -20 7 0 6 5 -2 15 -10 12 -10 22 -2 39 13 30 -1
46 -40 46 -27 0 -28 -2 -28 -50z m55 20 c0 -8 -8 -16 -17 -18 -13 -2 -18 3
-18 18 0 15 5 20 18 18 9 -2 17 -10 17 -18z"/>
<path d="M6310 1830 c0 -27 5 -50 10 -50 6 0 10 9 10 20 0 11 4 20 10 20 5 0
14 -9 20 -20 6 -11 16 -20 22 -20 7 0 6 5 -2 15 -10 12 -10 22 -2 39 13 30 -1
46 -40 46 -27 0 -28 -2 -28 -50z m55 20 c0 -8 -8 -16 -17 -18 -13 -2 -18 3
-18 18 0 15 5 20 18 18 9 -2 17 -10 17 -18z"/>
<path d="M6400 1830 c0 -27 5 -50 10 -50 6 0 10 9 10 19 0 12 8 21 23 24 l22
4 -22 2 c-35 2 -31 39 5 44 22 3 20 4 -10 6 l-38 1 0 -50z"/>
<path d="M6490 1831 c0 -28 5 -51 10 -51 6 0 10 9 10 20 0 11 4 20 9 20 5 0
13 -9 16 -20 11 -35 21 -22 20 28 0 46 -1 47 -32 50 l-33 3 0 -50z m50 19 c0
-11 -7 -20 -15 -20 -8 0 -15 9 -15 20 0 11 7 20 15 20 8 0 15 -9 15 -20z"/>
<path d="M1330 1639 c-151 -11 -240 -26 -287 -50 -33 -17 -39 -18 -49 -4 -9
12 -13 7 -23 -26 -7 -23 -10 -43 -7 -46 2 -3 20 1 40 8 26 10 33 16 25 25 -13
16 7 27 87 48 48 13 273 36 347 36 10 0 15 5 12 10 -3 6 -12 9 -18 9 -7 -1
-64 -6 -127 -10z"/>
<path d="M7900 1515 c0 -8 -6 -15 -14 -15 -22 0 -39 -28 -32 -55 5 -20 13 -25
36 -25 30 0 30 1 30 55 0 30 -4 55 -10 55 -5 0 -10 -7 -10 -15z m0 -61 c0 -15
-6 -24 -15 -24 -15 0 -21 40 -9 53 12 11 24 -3 24 -29z"/>
<path d="M7491 1468 c1 -29 4 -43 6 -31 2 13 13 24 26 26 l22 4 -22 2 c-38 2
-30 39 10 44 31 4 31 4 -5 5 l-38 2 1 -52z"/>
<path d="M8042 1508 c-7 -7 -12 -24 -12 -38 0 -33 17 -50 50 -49 l25 1 -25 7
c-20 6 -25 13 -25 41 0 28 5 35 25 41 l25 7 -25 1 c-15 1 -31 -4 -38 -11z"/>
<path d="M8130 1512 c0 -5 10 -8 21 -8 32 1 34 -20 5 -47 -35 -32 -33 -37 12
-36 23 1 28 3 15 6 -27 5 -29 16 -8 33 25 21 15 54 -17 58 -16 2 -28 -1 -28
-6z"/>
<path d="M7580 1476 c0 -36 10 -56 29 -55 10 0 11 2 4 6 -7 2 -13 20 -13 39 0
19 -4 34 -10 34 -5 0 -10 -11 -10 -24z"/>
<path d="M7630 1460 c0 -22 3 -40 8 -40 4 0 6 18 4 40 -2 22 -6 40 -8 40 -2 0
-4 -18 -4 -40z"/>
<path d="M7680 1485 c-10 -12 -7 -17 14 -26 34 -16 33 -27 -1 -32 -22 -4 -20
-4 6 -3 44 1 50 20 14 40 l-28 15 25 10 c23 9 23 10 4 10 -12 1 -27 -6 -34
-14z"/>
<path d="M7770 1485 c-19 -23 3 -65 32 -64 23 2 23 2 1 6 -12 2 -24 11 -27 19
-4 10 3 14 24 14 32 0 37 9 18 28 -16 16 -33 15 -48 -3z m45 -5 c4 -6 -5 -10
-20 -10 -15 0 -24 4 -20 10 3 6 12 10 20 10 8 0 17 -4 20 -10z"/>
<path d="M550 840 l0 -630 310 0 310 0 0 630 0 630 -310 0 -310 0 0 -630z
m610 0 l0 -620 -300 0 -300 0 0 620 0 620 300 0 300 0 0 -620z"/>
<path d="M590 1429 c0 -5 5 -7 10 -4 6 3 10 8 10 11 0 2 -4 4 -10 4 -5 0 -10
-5 -10 -11z"/>
<path d="M643 1433 c15 -2 39 -2 55 0 15 2 2 4 -28 4 -30 0 -43 -2 -27 -4z"/>
<path d="M738 1433 c7 -3 16 -2 19 1 4 3 -2 6 -13 5 -11 0 -14 -3 -6 -6z"/>
<path d="M793 1433 c15 -2 39 -2 55 0 15 2 2 4 -28 4 -30 0 -43 -2 -27 -4z"/>
<path d="M888 1433 c7 -3 16 -2 19 1 4 3 -2 6 -13 5 -11 0 -14 -3 -6 -6z"/>
<path d="M943 1433 c15 -2 39 -2 55 0 15 2 2 4 -28 4 -30 0 -43 -2 -27 -4z"/>
<path d="M1038 1433 c7 -3 16 -2 19 1 4 3 -2 6 -13 5 -11 0 -14 -3 -6 -6z"/>
<path d="M1070 1436 c0 -2 14 -6 30 -8 17 -3 30 -1 30 4 0 4 -13 8 -30 8 -16
0 -30 -2 -30 -4z"/>
<path d="M593 1360 c0 -30 2 -43 4 -27 2 15 2 39 0 55 -2 15 -4 2 -4 -28z"/>
<path d="M1123 1360 c0 -30 2 -43 4 -27 2 15 2 39 0 55 -2 15 -4 2 -4 -28z"/>
<path d="M670 1340 c-15 -27 4 -60 33 -59 l22 0 -23 10 c-28 11 -28 55 1 53 9
-1 17 2 17 7 0 17 -39 9 -50 -11z"/>
<path d="M1002 1344 c-7 -8 -8 -14 -2 -14 5 0 10 -11 10 -25 0 -20 5 -25 23
-24 16 1 18 2 5 6 -10 2 -18 13 -18 24 0 11 7 19 18 20 13 0 14 2 2 6 -8 3
-17 9 -20 13 -3 4 -11 2 -18 -6z"/>
<path d="M736 1325 c-8 -22 4 -45 24 -45 10 0 20 7 24 15 8 22 -4 45 -24 45
-10 0 -20 -7 -24 -15z m34 -15 c0 -11 -4 -20 -10 -20 -5 0 -10 9 -10 20 0 11
5 20 10 20 6 0 10 -9 10 -20z"/>
<path d="M801 1308 c1 -21 3 -26 6 -13 8 34 23 41 23 12 0 -15 5 -27 11 -27 6
0 9 12 7 28 -2 19 -9 28 -25 30 -20 3 -23 -1 -22 -30z"/>
<path d="M866 1325 c-10 -26 5 -45 33 -44 23 2 24 2 4 6 -15 3 -23 12 -23 25
0 14 5 18 15 14 8 -3 15 -1 15 4 0 16 -37 11 -44 -5z"/>
<path d="M948 1334 c15 -7 16 -44 1 -44 -5 0 -7 5 -4 10 3 6 1 10 -4 10 -6 0
-11 -7 -11 -15 0 -10 10 -15 29 -15 27 0 29 2 22 28 -4 16 -15 28 -27 29 -10
2 -13 0 -6 -3z"/>
<path d="M591 1284 c0 -11 3 -14 6 -6 3 7 2 16 -1 19 -3 4 -6 -2 -5 -13z"/>
<path d="M1121 1284 c0 -11 3 -14 6 -6 3 7 2 16 -1 19 -3 4 -6 -2 -5 -13z"/>
<path d="M591 1233 l-1 -33 73 2 72 2 -67 3 c-64 4 -67 5 -71 31 -4 25 -4 24
-6 -5z"/>
<path d="M1120 1236 c0 -22 -5 -25 -42 -29 l-43 -4 48 -1 c46 -2 47 -1 47 28
0 17 -2 30 -5 30 -3 0 -5 -11 -5 -24z"/>
<path d="M788 1203 c53 -4 57 -8 46 -50 -5 -18 -15 -23 -58 -26 -36 -2 -29 -4
24 -4 41 0 69 2 63 4 -20 7 -16 71 5 76 9 3 -17 4 -58 4 -57 -1 -62 -2 -22 -4z"/>
<path d="M923 1203 c20 -2 54 -2 75 0 20 2 3 4 -38 4 -41 0 -58 -2 -37 -4z"/>
<path d="M590 1122 c0 -4 17 -6 38 -4 58 5 62 10 10 11 -27 1 -48 -3 -48 -7z"/>
<path d="M698 1123 c7 -3 16 -2 19 1 4 3 -2 6 -13 5 -11 0 -14 -3 -6 -6z"/>
<path d="M913 1123 c20 -2 54 -2 75 0 20 2 3 4 -38 4 -41 0 -58 -2 -37 -4z"/>
<path d="M1040 1124 c38 -8 90 -9 90 -2 0 4 -24 7 -52 7 -29 -1 -46 -3 -38 -5z"/>
<path d="M593 1050 c0 -30 2 -43 4 -27 2 15 2 39 0 55 -2 15 -4 2 -4 -28z"/>
<path d="M1123 1030 c0 -41 2 -58 4 -37 2 20 2 54 0 75 -2 20 -4 3 -4 -38z"/>
<path d="M640 1025 c-7 -8 -10 -25 -6 -40 5 -20 12 -25 34 -24 22 1 23 3 5 6
-24 5 -35 25 -27 47 3 8 15 17 27 19 l22 4 -21 2 c-12 0 -27 -6 -34 -14z"/>
<path d="M905 1030 c-3 -5 -1 -10 4 -10 15 0 14 -47 -1 -53 -7 -3 1 -5 17 -5
17 0 24 2 18 5 -7 2 -13 20 -13 39 0 33 -12 45 -25 24z"/>
<path d="M1035 1030 c-3 -5 -1 -10 4 -10 15 0 14 -47 -1 -53 -7 -3 1 -5 17 -5
17 0 24 2 18 5 -7 2 -13 20 -13 39 0 33 -12 45 -25 24z"/>
<path d="M704 1006 c-9 -24 4 -48 23 -44 12 2 18 12 18 28 0 29 -32 41 -41 16z
m31 -16 c0 -7 -6 -15 -12 -17 -8 -3 -13 4 -13 17 0 13 5 20 13 18 6 -3 12 -11
12 -18z"/>
<path d="M771 988 c2 -31 2 -31 6 -5 2 15 8 27 13 27 5 0 11 -12 13 -27 4 -26
4 -26 6 5 1 26 -3 32 -19 32 -16 0 -20 -6 -19 -32z"/>
<path d="M835 998 c8 -26 22 -44 29 -37 2 2 7 18 10 34 6 29 6 29 -5 5 l-11
-25 -9 23 c-4 12 -11 22 -14 22 -4 0 -3 -10 0 -22z"/>
<path d="M970 1008 c6 -8 5 -17 -3 -27 -10 -14 -10 -14 4 -4 9 8 19 9 25 3 5
-5 9 0 9 15 0 15 -4 20 -11 14 -6 -5 -15 -5 -22 1 -9 7 -9 7 -2 -2z"/>
<path d="M591 974 c0 -11 3 -14 6 -6 3 7 2 16 -1 19 -3 4 -6 -2 -5 -13z"/>
<path d="M591 923 l-1 -33 53 2 52 2 -47 3 c-42 4 -47 7 -51 31 -4 24 -4 24
-6 -5z"/>
<path d="M1120 926 c0 -22 -5 -25 -42 -29 l-43 -4 48 -1 c46 -2 47 -1 47 28 0
17 -2 30 -5 30 -3 0 -5 -11 -5 -24z"/>
<path d="M708 893 c7 -3 16 -2 19 1 4 3 -2 6 -13 5 -11 0 -14 -3 -6 -6z"/>
<path d="M763 893 c15 -2 39 -2 55 0 15 2 2 4 -28 4 -30 0 -43 -2 -27 -4z"/>
<path d="M858 893 c7 -3 16 -2 19 1 4 3 -2 6 -13 5 -11 0 -14 -3 -6 -6z"/>
<path d="M913 893 c15 -2 39 -2 55 0 15 2 2 4 -28 4 -30 0 -43 -2 -27 -4z"/>
<path d="M1008 893 c7 -3 16 -2 19 1 4 3 -2 6 -13 5 -11 0 -14 -3 -6 -6z"/>
<path d="M838 858 c-3 -15 -2 -32 2 -38 12 -20 20 4 11 36 l-8 29 -5 -27z"/>
<path d="M581 773 c1 -23 2 -24 6 -6 3 14 13 23 31 26 24 4 24 4 -5 6 -30 1
-33 -2 -32 -26z"/>
<path d="M658 793 c7 -3 16 -2 19 1 4 3 -2 6 -13 5 -11 0 -14 -3 -6 -6z"/>
<path d="M713 793 c15 -2 39 -2 55 0 15 2 2 4 -28 4 -30 0 -43 -2 -27 -4z"/>
<path d="M808 793 c7 -3 16 -2 19 1 4 3 -2 6 -13 5 -11 0 -14 -3 -6 -6z"/>
<path d="M863 793 c15 -2 39 -2 55 0 15 2 2 4 -28 4 -30 0 -43 -2 -27 -4z"/>
<path d="M958 793 c7 -3 16 -2 19 1 4 3 -2 6 -13 5 -11 0 -14 -3 -6 -6z"/>
<path d="M1013 793 c15 -2 39 -2 55 0 15 2 2 4 -28 4 -30 0 -43 -2 -27 -4z"/>
<path d="M1108 775 c2 -14 6 -25 8 -25 2 0 4 11 4 25 0 14 -4 25 -9 25 -4 0
-6 -11 -3 -25z"/>
<path d="M583 670 c0 -41 2 -58 4 -37 2 20 2 54 0 75 -2 20 -4 3 -4 -38z"/>
<path d="M1111 724 c0 -11 3 -14 6 -6 3 7 2 16 -1 19 -3 4 -6 -2 -5 -13z"/>
<path d="M800 690 c0 -34 3 -40 20 -40 26 0 34 19 21 53 -16 43 -41 35 -41
-13z m30 20 c0 -5 -4 -10 -10 -10 -5 0 -10 5 -10 10 0 6 5 10 10 10 6 0 10 -4
10 -10z m2 -35 c0 -5 -5 -11 -11 -13 -6 -2 -11 4 -11 13 0 9 5 15 11 13 6 -2
11 -8 11 -13z"/>
<path d="M861 688 c1 -40 2 -41 9 -13 4 17 8 25 9 19 0 -5 8 -19 16 -30 13
-18 14 -16 13 26 0 39 -1 41 -7 15 l-7 -30 -7 28 c-11 42 -27 32 -26 -15z"/>
<path d="M1113 650 c0 -30 2 -43 4 -27 2 15 2 39 0 55 -2 15 -4 2 -4 -28z"/>
<path d="M580 578 c0 -14 8 -18 38 -17 34 2 34 2 7 6 -16 3 -33 10 -37 16 -5
8 -8 6 -8 -5z"/>
<path d="M1111 574 c0 -11 3 -14 6 -6 3 7 2 16 -1 19 -3 4 -6 -2 -5 -13z"/>
<path d="M693 563 c20 -2 54 -2 75 0 20 2 3 4 -38 4 -41 0 -58 -2 -37 -4z"/>
<path d="M822 563 c28 -7 22 -81 -6 -86 -12 -2 4 -4 34 -4 35 -1 46 2 30 6
-20 5 -26 13 -28 43 l-3 37 53 4 c41 2 36 3 -22 4 -41 0 -67 -1 -58 -4z"/>
<path d="M993 563 c20 -2 54 -2 75 0 20 2 3 4 -38 4 -41 0 -58 -2 -37 -4z"/>
<path d="M580 469 c0 -5 5 -7 10 -4 6 3 10 8 10 11 0 2 -4 4 -10 4 -5 0 -10
-5 -10 -11z"/>
<path d="M618 473 c7 -3 16 -2 19 1 4 3 -2 6 -13 5 -11 0 -14 -3 -6 -6z"/>
<path d="M673 473 c15 -2 39 -2 55 0 15 2 2 4 -28 4 -30 0 -43 -2 -27 -4z"/>
<path d="M768 473 c7 -3 16 -2 19 1 4 3 -2 6 -13 5 -11 0 -14 -3 -6 -6z"/>
<path d="M918 473 c7 -3 16 -2 19 1 4 3 -2 6 -13 5 -11 0 -14 -3 -6 -6z"/>
<path d="M973 473 c15 -2 39 -2 55 0 15 2 2 4 -28 4 -30 0 -43 -2 -27 -4z"/>
<path d="M1068 473 c7 -3 16 -2 19 1 4 3 -2 6 -13 5 -11 0 -14 -3 -6 -6z"/>
<path d="M1108 455 c2 -14 6 -25 8 -25 2 0 4 11 4 25 0 14 -4 25 -9 25 -4 0
-6 -11 -3 -25z"/>
<path d="M583 400 c0 -30 2 -43 4 -27 2 15 2 39 0 55 -2 15 -4 2 -4 -28z"/>
<path d="M1111 404 c0 -11 3 -14 6 -6 3 7 2 16 -1 19 -3 4 -6 -2 -5 -13z"/>
<path d="M731 368 c1 -24 3 -35 6 -25 6 21 12 22 28 0 10 -14 12 -10 11 23 -1
32 -5 40 -23 42 -21 3 -23 0 -22 -40z m31 17 c0 -5 -5 -11 -11 -13 -6 -2 -11
4 -11 13 0 9 5 15 11 13 6 -2 11 -8 11 -13z"/>
<path d="M861 373 c-1 -42 0 -43 32 -42 29 1 30 2 7 8 -19 5 -27 16 -31 41 -6
35 -6 35 -8 -7z"/>
<path d="M920 383 c0 -37 13 -56 36 -51 14 2 20 13 22 41 2 21 -1 37 -7 37 -6
0 -11 -16 -11 -35 0 -19 -4 -35 -10 -35 -5 0 -10 16 -10 35 0 19 -4 35 -10 35
-5 0 -10 -12 -10 -27z"/>
<path d="M796 374 c-8 -20 11 -44 33 -43 12 0 11 2 -4 9 -17 7 -17 9 -2 9 24
1 23 41 -2 41 -10 0 -22 -7 -25 -16z m34 -4 c0 -5 -4 -10 -10 -10 -5 0 -10 5
-10 10 0 6 5 10 10 10 6 0 10 -4 10 -10z"/>
<path d="M1113 310 c0 -41 2 -58 4 -37 2 20 2 54 0 75 -2 20 -4 3 -4 -38z"/>
<path d="M581 324 c0 -11 3 -14 6 -6 3 7 2 16 -1 19 -3 4 -6 -2 -5 -13z"/>
<path d="M581 273 c-1 -32 0 -33 37 -31 36 1 36 1 5 5 -26 3 -33 9 -36 31 -4
24 -4 24 -6 -5z"/>
<path d="M693 243 c20 -2 54 -2 75 0 20 2 3 4 -38 4 -41 0 -58 -2 -37 -4z"/>
<path d="M843 243 c20 -2 54 -2 75 0 20 2 3 4 -38 4 -41 0 -58 -2 -37 -4z"/>
<path d="M993 243 c20 -2 54 -2 75 0 20 2 3 4 -38 4 -41 0 -58 -2 -37 -4z"/>
<path d="M8672 1433 c92 -2 245 -2 340 0 95 1 20 3 -167 3 -187 0 -265 -2
-173 -3z"/>
<path d="M8459 1403 l-24 -28 30 25 c17 14 32 26 34 28 2 1 0 2 -6 2 -5 0 -20
-12 -34 -27z"/>
<path d="M7958 1413 c12 -2 30 -2 40 0 9 3 -1 5 -23 4 -22 0 -30 -2 -17 -4z"/>
<path d="M9210 1416 c0 -2 8 -10 18 -17 15 -13 16 -12 3 4 -13 16 -21 21 -21
13z"/>
<path d="M7105 1349 c-4 -6 -5 -12 -2 -15 2 -3 7 2 10 11 7 17 1 20 -8 4z"/>
<path d="M7226 1333 c-6 -14 -5 -15 5 -6 7 7 10 15 7 18 -3 3 -9 -2 -12 -12z"/>
<path d="M7356 1333 c-6 -14 -5 -15 5 -6 7 7 10 15 7 18 -3 3 -9 -2 -12 -12z"/>
<path d="M7498 1174 c-38 -20 -36 -28 2 -9 17 9 30 18 30 20 0 7 -1 6 -32 -11z"/>
<path d="M9253 1030 c0 -36 2 -50 4 -32 2 17 2 47 0 65 -2 17 -4 3 -4 -33z"/>
<path d="M1329 935 c-4 -28 -7 -30 -51 -33 l-48 -3 0 -74 0 -74 47 -3 c44 -3
48 -5 53 -33 5 -27 8 -22 26 40 l20 70 -22 70 c-18 60 -22 66 -25 40z"/>
<path d="M3181 944 c-37 -26 -51 -74 -51 -174 0 -100 14 -148 51 -174 21 -14
76 -16 506 -16 l483 0 32 29 33 29 0 132 0 132 -33 29 -32 29 -483 0 c-430 0
-485 -2 -506 -16z m1011 -23 l33 -29 0 -122 0 -122 -33 -29 -32 -29 -476 0
-476 0 -29 29 c-29 29 -29 30 -29 151 0 121 0 122 29 151 l29 29 476 0 476 0
32 -29z"/>
<path d="M3446 814 c-19 -18 -21 -65 -4 -82 14 -14 72 -16 63 -2 -3 5 -11 7
-18 5 -22 -8 -39 11 -35 41 2 21 9 29 23 30 38 3 40 4 25 14 -21 14 -36 12
-54 -6z"/>
<path d="M3710 810 c-38 -38 -18 -91 33 -89 22 1 25 3 10 6 -31 6 -46 29 -39
59 5 20 12 25 26 21 24 -6 36 8 14 17 -22 8 -22 8 -44 -14z"/>
<path d="M3796 815 c-18 -19 -11 -42 15 -50 10 -4 19 -13 19 -22 0 -11 -6 -14
-25 -9 -15 4 -25 2 -25 -4 0 -7 14 -10 33 -8 42 4 50 39 12 56 -29 13 -24 36
6 27 23 -8 26 10 3 19 -21 8 -20 8 -38 -9z"/>
<path d="M3524 795 c-15 -23 -15 -27 0 -50 10 -16 26 -25 41 -25 20 0 25 5 25
25 0 20 -5 25 -22 24 -17 -1 -19 -2 -5 -6 22 -6 23 -36 1 -31 -9 2 -22 11 -28
21 -14 23 4 52 32 51 12 0 19 3 16 8 -10 17 -44 7 -60 -17z"/>
<path d="M3890 795 c-5 -14 -13 -38 -16 -53 -5 -22 -4 -25 7 -14 7 6 21 12 30
12 10 0 19 -6 22 -12 2 -7 6 -11 9 -8 8 8 -22 100 -33 100 -5 0 -14 -11 -19
-25z m30 -32 c0 -7 -7 -13 -16 -13 -11 0 -14 5 -10 16 3 9 6 21 6 27 0 16 20
-14 20 -30z"/>
<path d="M3628 773 c12 -2 30 -2 40 0 9 3 -1 5 -23 4 -22 0 -30 -2 -17 -4z"/>
<path d="M4886 950 c-81 -25 -136 -98 -136 -181 0 -56 25 -104 73 -143 36 -29
45 -31 116 -31 66 0 83 4 115 25 65 43 96 129 74 202 -29 98 -142 158 -242
128z m146 -38 l28 -16 -33 -34 c-17 -19 -44 -43 -59 -53 l-27 -20 -60 48 c-67
54 -67 62 5 88 45 17 105 11 146 -13z m-142 -110 l35 -30 -55 -51 c-30 -27
-58 -50 -62 -51 -15 0 -38 60 -38 100 0 23 7 54 15 71 l16 30 27 -20 c15 -11
43 -33 62 -49z m206 43 c28 -42 16 -165 -15 -165 -5 0 -34 21 -65 46 l-55 46
52 49 c29 26 55 48 59 49 4 0 15 -11 24 -25z m-90 -137 c29 -24 53 -46 54 -51
1 -18 -67 -47 -113 -47 -50 0 -117 22 -117 39 0 11 101 100 114 101 5 0 33
-19 62 -42z"/>
<path d="M5802 949 c-18 -6 -50 -27 -71 -48 -102 -102 -57 -262 87 -304 46
-14 58 -14 102 -1 90 27 140 90 140 178 0 130 -123 214 -258 175z m48 -84 l0
-75 -75 0 c-83 0 -88 5 -60 60 17 32 63 68 103 80 15 5 28 9 30 9 1 1 2 -33 2
-74z m129 36 c27 -19 61 -75 61 -100 0 -7 -27 -11 -75 -11 l-75 0 0 74 0 75
30 -9 c16 -5 43 -18 59 -29z m-129 -222 l0 -71 -27 7 c-54 13 -123 84 -123
125 0 6 29 10 75 10 l75 0 0 -71z m190 57 c0 -25 -46 -81 -85 -103 -61 -35
-65 -32 -65 47 l0 70 75 0 c56 0 75 -3 75 -14z"/>
<path d="M7504 910 c-12 -5 -25 -14 -29 -20 -4 -7 7 -4 24 4 17 9 31 19 31 21
0 6 1 6 -26 -5z"/>
<path d="M8720 781 c0 -28 5 -51 10 -51 6 0 10 9 10 20 0 26 14 25 32 -1 13
-20 14 -18 13 27 0 48 -1 49 -32 52 l-33 3 0 -50z m55 19 c0 -8 -8 -16 -17
-18 -13 -2 -18 3 -18 18 0 15 5 20 18 18 9 -2 17 -10 17 -18z"/>
<path d="M8810 780 c0 -27 5 -50 10 -50 6 0 10 9 10 19 0 12 8 21 23 24 l22 4
-22 2 c-35 2 -31 39 5 44 22 3 20 4 -10 6 l-38 1 0 -50z"/>
<path d="M8900 780 c0 -27 5 -50 10 -50 6 0 10 9 10 19 0 12 8 21 23 24 l22 4
-22 2 c-35 2 -31 39 5 44 22 3 20 4 -10 6 l-38 1 0 -50z"/>
<path d="M5567 800 c5 -19 -1 -20 -191 -20 -124 0 -196 -4 -196 -10 0 -6 72
-10 196 -10 170 0 195 -2 190 -15 -3 -8 -3 -15 0 -15 9 0 86 41 82 44 -1 2
-22 13 -44 24 -41 21 -42 21 -37 2z"/>
<path d="M3030 795 c0 -13 -27 -15 -195 -15 -123 0 -195 -4 -195 -10 0 -6 72
-10 195 -10 167 0 195 -2 195 -15 0 -19 7 -18 49 4 l35 19 -42 21 c-35 18 -42
19 -42 6z"/>
<path d="M4650 795 c0 -13 -28 -15 -195 -15 -123 0 -195 -4 -195 -10 0 -6 72
-10 195 -10 168 0 195 -2 195 -15 0 -13 7 -12 42 6 l42 21 -35 19 c-42 22 -49
23 -49 4z"/>
<path d="M6476 795 c5 -13 -20 -15 -195 -15 -127 0 -201 -4 -201 -10 0 -6 74
-10 201 -10 175 0 200 -2 195 -15 -3 -8 -3 -15 -1 -15 11 0 75 34 75 40 0 6
-64 40 -75 40 -2 0 -2 -7 1 -15z"/>
<path d="M8214 775 c5 -13 -21 -15 -194 -15 -127 0 -200 -4 -200 -10 0 -6 73
-10 200 -10 173 0 199 -2 194 -15 -4 -8 -4 -15 0 -15 11 0 76 34 76 40 0 6
-65 40 -76 40 -4 0 -4 -7 0 -15z"/>
<path d="M9253 655 c0 -38 2 -53 4 -32 2 20 2 52 0 70 -2 17 -4 1 -4 -38z"/>
<path d="M1910 680 c0 -5 5 -10 10 -10 6 0 10 5 10 10 0 6 -4 10 -10 10 -5 0
-10 -4 -10 -10z"/>
<path d="M1960 680 c0 -5 5 -10 10 -10 6 0 10 5 10 10 0 6 -4 10 -10 10 -5 0
-10 -4 -10 -10z"/>
<path d="M2000 680 c0 -5 5 -10 10 -10 6 0 10 5 10 10 0 6 -4 10 -10 10 -5 0
-10 -4 -10 -10z"/>
<path d="M7010 680 c0 -5 5 -10 10 -10 6 0 10 5 10 10 0 6 -4 10 -10 10 -5 0
-10 -4 -10 -10z"/>
<path d="M7050 680 c0 -5 5 -10 10 -10 6 0 10 5 10 10 0 6 -4 10 -10 10 -5 0
-10 -4 -10 -10z"/>
<path d="M7100 680 c0 -5 5 -10 10 -10 6 0 10 5 10 10 0 6 -4 10 -10 10 -5 0
-10 -4 -10 -10z"/>
<path d="M7504 640 c-12 -5 -25 -13 -28 -19 -4 -5 7 -3 24 5 16 9 30 17 30 20
0 5 0 5 -26 -6z"/>
<path d="M9253 280 c0 -36 2 -50 4 -32 2 17 2 47 0 65 -2 17 -4 3 -4 -33z"/>
<path d="M2404 294 c3 -9 6 -31 6 -50 0 -39 26 -48 33 -11 l4 22 2 -22 c0 -13
7 -23 15 -23 10 0 15 15 18 50 1 28 0 50 -4 50 -5 0 -8 -17 -9 -37 l-1 -38
-12 29 -13 29 -11 -29 -10 -29 -1 38 c-1 20 -6 37 -12 37 -6 0 -8 -7 -5 -16z"/>
<path d="M2603 260 c0 -30 2 -45 4 -32 3 13 12 22 23 22 11 0 20 -9 23 -22 2
-13 4 2 4 32 0 30 -2 43 -4 28 -3 -19 -10 -28 -23 -28 -13 0 -20 9 -23 28 -2
15 -4 2 -4 -28z"/>
<path d="M2780 302 c0 -5 10 -8 21 -8 32 1 34 -20 5 -47 -35 -32 -33 -37 12
-36 23 1 28 3 15 6 -27 5 -29 16 -8 33 25 21 15 54 -17 58 -16 2 -28 -1 -28
-6z"/>
<path d="M2870 285 c0 -20 5 -25 25 -25 15 0 25 -6 25 -14 0 -22 -19 -29 -37
-14 -14 11 -16 11 -11 -2 6 -21 42 -24 57 -6 17 20 7 46 -19 53 -27 7 -25 21
3 26 16 3 13 5 -10 6 -29 1 -33 -2 -33 -24z"/>
<path d="M2971 296 c-7 -8 -11 -30 -9 -48 2 -27 7 -33 27 -33 34 0 52 32 28
50 -11 7 -26 11 -35 8 -10 -5 -13 -3 -8 6 5 7 18 16 30 21 l21 9 -21 0 c-12 1
-27 -5 -33 -13z m39 -50 c0 -8 -5 -18 -11 -22 -14 -8 -33 11 -25 25 10 16 36
13 36 -3z"/>
<path d="M7480 298 c0 -30 13 -88 20 -88 9 0 30 46 30 65 0 26 -19 16 -23 -12
-4 -27 -4 -26 -6 4 -1 30 -21 59 -21 31z"/>
<path d="M7542 268 c-14 -56 -15 -58 -2 -58 11 0 24 60 18 87 -2 11 -9 -1 -16
-29z"/>
<path d="M7673 260 c0 -30 2 -45 4 -32 3 15 11 22 28 22 17 0 25 -7 28 -22 2
-13 4 2 4 32 0 30 -2 43 -4 28 -3 -22 -10 -28 -28 -28 -18 0 -25 6 -28 28 -2
15 -4 2 -4 -28z"/>
<path d="M7850 301 c0 -4 11 -6 25 -3 20 3 25 0 25 -16 0 -11 -11 -29 -25 -40
-34 -27 -32 -32 13 -31 22 1 28 3 15 6 -22 4 -22 4 -3 35 10 17 16 37 13 44
-6 15 -63 20 -63 5z"/>
<path d="M7950 285 c0 -20 5 -25 25 -25 15 0 25 -6 25 -14 0 -21 -20 -30 -33
-17 -17 17 -31 13 -17 -4 21 -25 54 -15 58 17 2 19 -2 28 -17 33 -28 8 -27 23
2 28 16 3 13 5 -10 6 -29 1 -33 -2 -33 -24z"/>
<path d="M8044 285 c-18 -28 -16 -54 7 -68 24 -15 49 -1 49 28 0 24 -8 29 -40
26 -10 -1 -7 5 9 19 17 15 19 20 7 20 -8 0 -23 -11 -32 -25z m44 -42 c-2 -10
-10 -18 -18 -18 -8 0 -16 8 -18 18 -2 12 3 17 18 17 15 0 20 -5 18 -17z"/>
<path d="M2520 278 c6 -8 5 -17 -3 -27 -10 -14 -10 -14 4 -4 10 8 19 9 27 3 9
-7 9 -7 2 2 -6 8 -5 17 3 27 10 14 10 14 -4 4 -10 -8 -19 -9 -27 -3 -9 7 -9 7
-2 -2z"/>
<path d="M2700 278 c6 -8 5 -17 -3 -27 -10 -14 -10 -14 4 -4 9 8 19 9 25 3 5
-5 9 0 9 15 0 15 -4 20 -11 14 -6 -5 -15 -5 -22 1 -9 7 -9 7 -2 -2z"/>
<path d="M7595 265 c0 -14 7 -21 24 -22 16 -1 20 2 12 10 -7 7 -7 14 0 23 7 9
4 12 -13 11 -16 -1 -23 -8 -23 -22z"/>
<path d="M7780 278 c6 -8 5 -17 -3 -27 -10 -14 -10 -14 4 -4 10 8 19 9 27 3 9
-7 9 -7 2 2 -6 8 -5 17 3 27 10 14 10 14 -4 4 -10 -8 -19 -9 -27 -3 -9 7 -9 7
-2 -2z"/>
<path d="M8598 123 c17 -2 47 -2 65 0 17 2 3 4 -33 4 -36 0 -50 -2 -32 -4z"/>
<path d="M8968 123 c17 -2 47 -2 65 0 17 2 3 4 -33 4 -36 0 -50 -2 -32 -4z"/>
</g>
</svg>
