<?xml version="1.0" encoding="iso-8859-1"?>
<!-- Generator: Adobe Illustrator 24.1.0, SVG Export Plug-In . SVG Version: 6.00 Build 0)  -->
<svg version="1.1" xmlns="http://www.w3.org/2000/svg" xmlns:xlink="http://www.w3.org/1999/xlink" x="0px" y="0px"
	 viewBox="0 0 512 512" style="enable-background:new 0 0 512 512;" xml:space="preserve">
<g id="_x31__x2C__Launch_x2C__optimization_x2C__rocket_x2C__startup">
	<g>
		<g>
			<path style="fill:#FF884D;" d="M484.613,20.021c27.869,101.465-13.683,232.181-108.488,305.858
				c-0.742-21.898-9.471-43.57-26.187-60.286L246.953,368.577c-10.742-10.742-99.777-99.777-110.907-110.907L239.03,154.685
				c-16.716-16.716-38.388-25.445-60.286-26.187C252.319,33.824,382.992-7.899,484.613,20.021z"/>
			<circle style="fill:#99CCFF;" cx="357.855" cy="146.768" r="56.014"/>
			<path style="fill:#FF4D4D;" d="M349.938,392.345l-79.216,79.216l-23.768-102.984l102.984-102.984
				C384.932,300.587,384.944,357.339,349.938,392.345z"/>
			<path style="fill:#FF4D4D;" d="M239.03,154.685L136.046,257.67L33.061,233.913l79.216-79.227
				C147.279,119.684,204.033,119.688,239.03,154.685z"/>
			<path d="M494.239,17.355c-0.999-3.637-3.841-6.479-7.478-7.478c-103.93-28.55-236.04,12.937-312.278,107.565
				c-24.857,0.523-49.555,10.22-68.483,29.147L27.199,225.39c-2.748,2.749-3.789,6.773-2.717,10.51
				c1.071,3.736,4.086,6.598,7.874,7.472l99.453,22.951l21.79,21.79l-79.12,79.12c-4.176,4.176-4.176,10.947,0,15.123
				c4.177,4.176,10.947,4.175,15.123,0l79.12-79.12l69.071,69.071l22.951,99.455c0.874,3.788,3.735,6.802,7.472,7.874
				c0.972,0.279,1.963,0.415,2.947,0.415c2.796,0,5.528-1.099,7.563-3.132l78.801-78.801c18.372-18.373,28.699-42.643,29.22-68.542
				C481.021,253.575,522.88,121.609,494.239,17.355z M121.123,161.712c28.028-28.029,72.157-30.379,102.885-7.048l-90.176,90.176
				l-77.868-17.97L121.123,161.712z M342.404,382.994l-65.159,65.159l-17.969-77.868l90.182-90.182
				C372.527,310.4,370.866,354.531,342.404,382.994z M383.963,303.864c-4.262-17.628-13.286-33.802-26.437-46.952
				c-4.177-4.175-10.946-4.175-15.123,0l-94.88,94.88l-95.199-95.198l94.88-94.881c4.176-4.176,4.176-10.947,0-15.123
				c-13.429-13.429-29.763-22.221-46.998-26.386C269.59,42.609,384.169,6.783,475.156,28.961
				C497.371,120.119,461.371,234.614,383.963,303.864z"/>
			<path d="M310.884,99.308c-25.895,25.896-25.895,68.03,0,93.925c25.898,25.896,68.028,25.894,93.924,0
				c25.895-25.896,25.895-68.03,0-93.925C378.912,73.414,336.779,73.413,310.884,99.308z M389.685,178.11
				c-17.555,17.556-46.121,17.556-63.678,0c-17.557-17.556-17.557-46.123,0-63.679c17.556-17.556,46.122-17.557,63.678,0
				C407.242,131.987,407.242,160.554,389.685,178.11z"/>
			<path d="M160.524,359.353c-4.176-4.175-10.947-4.175-15.123,0L12.008,492.745c-4.176,4.176-4.176,10.947,0,15.123
				c4.177,4.176,10.947,4.175,15.123,0l133.392-133.392C164.699,370.3,164.699,363.529,160.524,359.353z"/>
			<path d="M184.801,382.994l-79.979,79.979c-6.758,6.758-1.879,18.255,7.562,18.255c2.737,0,5.474-1.044,7.562-3.132l79.979-79.979
				c4.176-4.176,4.176-10.947,0-15.123C195.748,378.819,188.977,378.819,184.801,382.994z"/>
		</g>
	</g>
</g>
<g id="Layer_1">
</g>
</svg>
