<?xml version="1.0" encoding="iso-8859-1"?>
<!-- Generator: Adobe Illustrator 24.1.0, SVG Export Plug-In . SVG Version: 6.00 Build 0)  -->
<svg version="1.1" xmlns="http://www.w3.org/2000/svg" xmlns:xlink="http://www.w3.org/1999/xlink" x="0px" y="0px"
	 viewBox="0 0 512 512" style="enable-background:new 0 0 512 512;" xml:space="preserve">
<g id="_x30_2_x2C__writing_x2C__content_x2C__paper_x2C__page_x2C__inscription">
	<g>
		<path id="XMLID_632_" style="fill:#153866;" d="M366,496H46c-5.523,0-10-4.478-10-10V26c0-5.523,4.477-10,10-10h250
			c2.652,0,5.195,1.054,7.071,2.929l70,70C374.946,90.804,376,93.348,376,96v390C376,491.522,371.522,496,366,496z M56,476h300
			V100.142L291.857,36H56V476z"/>
		<path id="XMLID_646_" style="fill:#153866;" d="M366,106h-70c-5.522,0-10-4.477-10-10V26c0-5.523,4.478-10,10-10s10,4.477,10,10
			v60h60c5.522,0,10,4.477,10,10S371.522,106,366,106z"/>
		<path id="XMLID_648_" style="fill:#153866;" d="M236,106H86c-5.523,0-10-4.477-10-10s4.477-10,10-10h150c5.523,0,10,4.477,10,10
			S241.523,106,236,106z"/>
		<path id="XMLID_652_" style="fill:#153866;" d="M326,296H86c-5.523,0-10-4.478-10-10s4.477-10,10-10h240c5.522,0,10,4.478,10,10
			S331.522,296,326,296z"/>
		<path id="XMLID_660_" style="fill:#153866;" d="M206,246H86c-5.523,0-10-4.477-10-10s4.477-10,10-10h120c5.523,0,10,4.477,10,10
			S211.523,246,206,246z"/>
		<path id="XMLID_666_" style="fill:#153866;" d="M326,346H86c-5.523,0-10-4.478-10-10s4.477-10,10-10h240c5.522,0,10,4.478,10,10
			S331.522,346,326,346z"/>
		<path id="XMLID_672_" style="fill:#153866;" d="M326,396H86c-5.523,0-10-4.478-10-10s4.477-10,10-10h240c5.522,0,10,4.478,10,10
			S331.522,396,326,396z"/>
		<path id="XMLID_677_" style="fill:#153866;" d="M326,446H86c-5.523,0-10-4.478-10-10s4.477-10,10-10h240c5.522,0,10,4.478,10,10
			S331.522,446,326,446z"/>
		<path id="XMLID_681_" style="fill:#FFB24D;" d="M427.425,491.145l-30-50C396.492,439.591,396,437.813,396,436V186
			c0-22.056,17.944-40,40-40s40,17.944,40,40v250c0,1.813-0.492,3.591-1.425,5.145l-30,50
			C440.701,497.602,431.31,497.62,427.425,491.145z M416,433.23l20,33.333l20-33.333V186c0-11.028-8.972-20-20-20s-20,8.972-20,20
			V433.23z"/>
		<path id="XMLID_694_" style="fill:#FFB24D;" d="M466,236h-60c-5.522,0-10-4.477-10-10s4.478-10,10-10h60c5.522,0,10,4.477,10,10
			S471.522,236,466,236z"/>
		<path id="XMLID_700_" style="fill:#FFB24D;" d="M466,276h-60c-5.522,0-10-4.478-10-10s4.478-10,10-10h60c5.522,0,10,4.478,10,10
			S471.522,276,466,276z"/>
	</g>
</g>
<g id="Layer_1">
</g>
</svg>
