<?xml version="1.0" encoding="iso-8859-1"?>
<!-- Generator: Adobe Illustrator 24.1.0, SVG Export Plug-In . SVG Version: 6.00 Build 0)  -->
<svg version="1.1" xmlns="http://www.w3.org/2000/svg" xmlns:xlink="http://www.w3.org/1999/xlink" x="0px" y="0px"
	 viewBox="0 0 512 512" style="enable-background:new 0 0 512 512;" xml:space="preserve">
<g id="_x32_2_x2C__balloon_x2C__fly_x2C__decoration_x2C__party_x2C__fast">
	<g>
		<path id="XMLID_778_" style="fill:#153866;" d="M304.571,496c-5.523,0-10-4.478-10-10c0-14.968-4.179-21.758-9.469-30.354
			c-5.829-9.473-12.436-20.208-12.436-40.836c0-29.364,13.328-38.538,18.895-52.972c1.987-5.152,7.774-7.72,12.928-5.731
			c5.153,1.987,7.719,7.775,5.732,12.929c-6.99,18.125-17.555,22.405-17.555,45.774c0,14.967,4.179,21.757,9.469,30.354
			c5.829,9.473,12.436,20.209,12.436,40.837C314.571,491.522,310.094,496,304.571,496z"/>
		<path id="XMLID_779_" style="fill:#FFB24D;" d="M86,246H76c-5.523,0-10-4.477-10-10s4.477-10,10-10h10c5.523,0,10,4.477,10,10
			S91.523,246,86,246z"/>
		<path id="XMLID_783_" style="fill:#FFB24D;" d="M196.71,246H126c-5.523,0-10-4.477-10-10s4.477-10,10-10h70.71
			c5.523,0,10,4.477,10,10S202.233,246,196.71,246z"/>
		<path id="XMLID_785_" style="fill:#FFB24D;" d="M180.42,206H96c-5.523,0-10-4.477-10-10s4.477-10,10-10h84.42
			c5.523,0,10,4.477,10,10S185.943,206,180.42,206z"/>
		<path id="XMLID_787_" style="fill:#FFB24D;" d="M227.11,286H96c-5.523,0-10-4.478-10-10s4.477-10,10-10h131.11
			c5.523,0,10,4.478,10,10S232.633,286,227.11,286z"/>
		<path id="XMLID_791_" style="fill:#FFB24D;" d="M305.484,375.523c-12.329,0-21.221-1.699-27.981-5.347
			c-6.786-3.661-14.875-11.24-14.875-26.558c0-23.632,19.226-42.857,42.857-42.857c23.632,0,42.857,19.226,42.857,42.857
			c0,15.317-8.089,22.897-14.876,26.558C326.705,373.824,317.813,375.523,305.484,375.523z M305.484,320.762
			c-12.604,0-22.857,10.254-22.857,22.857c0,5.304,0,11.904,22.857,11.904c22.857,0,22.857-6.601,22.857-11.904
			C328.341,331.016,318.087,320.762,305.484,320.762z"/>
		<path id="XMLID_798_" style="fill:#153866;" d="M305.484,320.762c-79.135,0-140.516-88.292-140.516-164.246
			C164.968,79.035,228.003,16,305.484,16C382.965,16,446,79.035,446,156.516C446,232.47,384.619,320.762,305.484,320.762z
			 M305.484,36c-66.453,0-120.516,54.063-120.516,120.516c0,66.148,53.8,144.246,120.516,144.246
			c66.685,0,120.516-78.051,120.516-144.246C426,90.063,371.937,36,305.484,36z"/>
		<path id="XMLID_803_" style="fill:#153866;" d="M390.167,170.683c-5.523,0-10-4.477-10-10c0-41.18-33.502-74.683-74.683-74.683
			c-5.523,0-10-4.477-10-10s4.477-10,10-10c52.208,0,94.683,42.475,94.683,94.683C400.167,166.206,395.689,170.683,390.167,170.683z
			"/>
	</g>
</g>
<g id="Layer_1">
</g>
</svg>
