<?xml version="1.0" encoding="iso-8859-1"?>
<!-- Generator: Adobe Illustrator 24.1.0, SVG Export Plug-In . SVG Version: 6.00 Build 0)  -->
<svg version="1.1" xmlns="http://www.w3.org/2000/svg" xmlns:xlink="http://www.w3.org/1999/xlink" x="0px" y="0px"
	 viewBox="0 0 512 512" style="enable-background:new 0 0 512 512;" xml:space="preserve">
<g id="_x31__x2C__scan_glass_x2C__lense_x2C__search_x2C__tool">
	<g>
		<path style="fill:#7ED8F6;" d="M337.987,69.228c74.2,74.2,74.2,194.5,0,268.7s-194.5,74.2-268.7,0s-74.2-194.5,0-268.7
			S263.787-4.972,337.987,69.228z"/>
		<path style="fill:#61729B;" d="M488.137,438.578c13.66,13.67,13.66,35.83,0,49.5c-13.67,13.67-35.83,13.67-49.5,0l-65.3-65.3
			c-13.66-13.67-13.66-35.83,0-49.49c13.672-13.672,35.839-13.661,49.5,0L488.137,438.578z"/>
		<ellipse style="fill:#EDF5FF;" cx="203.632" cy="203.578" rx="139.998" ry="139.995"/>
		<path d="M203.637,398.486c-49.935,0-99.871-19.008-137.886-57.023c-36.831-36.83-57.114-85.799-57.114-137.885
			S28.921,102.523,65.752,65.693c76.03-76.031,199.741-76.031,275.771,0c36.831,36.83,57.114,85.799,57.114,137.885
			s-20.284,101.055-57.114,137.885C303.508,379.478,253.572,398.486,203.637,398.486z M203.637,18.665
			c-47.375,0-94.749,18.033-130.814,54.099c-34.942,34.942-54.186,81.399-54.186,130.814s19.244,95.872,54.186,130.814
			c72.131,72.131,189.498,72.131,261.629,0c34.942-34.942,54.186-81.399,54.186-130.814s-19.244-95.872-54.186-130.814
			C298.386,36.698,251.012,18.665,203.637,18.665z"/>
		<path d="M203.636,348.578c-38.73,0-75.145-15.084-102.535-42.475c-56.533-56.532-56.533-148.519,0-205.051
			c27.39-27.391,63.804-42.475,102.535-42.475c38.73,0,75.142,15.084,102.527,42.475l0-0.001
			c27.39,27.386,42.475,63.797,42.475,102.526s-15.084,75.141-42.475,102.526C278.778,333.494,242.366,348.578,203.636,348.578z
			 M203.636,68.578c-36.059,0-69.962,14.044-95.463,39.545c-52.634,52.635-52.634,138.275,0,190.91
			c25.501,25.501,59.404,39.545,95.463,39.545c36.059,0,69.958-14.044,95.456-39.545c25.501-25.497,39.545-59.396,39.545-95.455
			s-14.044-69.958-39.545-95.454c0-0.001,0-0.001,0-0.001C273.595,82.622,239.695,68.578,203.636,68.578z"/>
		<path d="M267.628,144.587c-1.28,0-2.56-0.488-3.536-1.465c-16.147-16.152-37.618-25.047-60.455-25.047
			c-22.838,0-44.311,8.895-60.463,25.047c-1.953,1.954-5.118,1.953-7.071,0c-1.953-1.952-1.953-5.118,0-7.07
			c18.042-18.041,42.025-27.977,67.535-27.977c25.509,0,49.491,9.936,67.527,27.977c1.952,1.953,1.952,5.119-0.001,7.071
			C270.187,144.099,268.907,144.587,267.628,144.587z"/>
		<path d="M463.387,503.331c-10.685,0-20.73-4.162-28.286-11.718l-65.3-65.3c-15.589-15.6-15.588-40.973,0-56.561
			c7.554-7.555,17.599-11.715,28.286-11.715c10.686,0,20.731,4.16,28.286,11.715l65.299,65.289
			c15.586,15.598,15.586,40.975,0.001,56.57c0,0.001,0,0.001,0,0.001C484.117,499.168,474.072,503.331,463.387,503.331z
			 M398.088,368.038c-8.015,0-15.549,3.12-21.214,8.785c-11.691,11.691-11.69,30.721,0.001,42.421l65.299,65.299
			c11.697,11.697,30.731,11.697,42.429,0c11.689-11.697,11.689-30.732-0.001-42.431l-65.298-65.288
			C413.636,371.158,406.103,368.038,398.088,368.038z"/>
		<path d="M373.338,378.288c-1.28,0-2.56-0.488-3.536-1.465l-35.35-35.36c-1.952-1.953-1.952-5.119,0.001-7.071
			c1.954-1.951,5.119-1.951,7.071,0.001l35.35,35.36c1.952,1.953,1.952,5.119-0.001,7.071
			C375.896,377.799,374.617,378.288,373.338,378.288z"/>
	</g>
</g>
<g id="Layer_1">
</g>
</svg>
