<?xml version="1.0" encoding="iso-8859-1"?>
<!-- Generator: Adobe Illustrator 24.1.0, SVG Export Plug-In . SVG Version: 6.00 Build 0)  -->
<svg version="1.1" xmlns="http://www.w3.org/2000/svg" xmlns:xlink="http://www.w3.org/1999/xlink" x="0px" y="0px"
	 viewBox="0 0 512 512" style="enable-background:new 0 0 512 512;" xml:space="preserve">
<g id="_x32_6_x2C__Success_x2C__clouds_x2C__achieve_x2C__ladder_x2C__cloud_x2C__business">
	<g>
		<path style="fill:#7AD7FD;" d="M387.134,102c-12.73-46.68-55.42-81-106.13-81c-40.16,0-75.29,21.53-94.5,53.67
			c-8.08-2.38-16.64-3.67-25.5-3.67c-52.571,0-94.375,44.992-89.63,98.17c-35.51,15.34-60.37,50.68-60.37,91.83
			c0,55.23,44.77,100,100,100c28.627,0,229.315,0,260,0c71.8,0,130-58.2,130-130C501.004,164.66,451.314,109.94,387.134,102z"/>
		<g>
			<path style="fill:#9A786F;" d="M331.004,471c0,11.05-8.96,20-20,20c-11.05,0-20-8.95-20-20c0-59.904,0-209.902,0-260
				c0-11.05,8.95-20,20-20c11.04,0,20,8.96,20,20C331.004,217.712,331.004,454.237,331.004,471z"/>
		</g>
		<g>
			<path style="fill:#9A786F;" d="M211.004,471c0,11.05-8.96,20-20,20c-11.05,0-20-8.95-20-20c0-16.407,0-252.991,0-260
				c0-11.05,8.95-20,20-20c11.04,0,20,8.96,20,20C211.004,263.348,211.004,418.652,211.004,471z"/>
		</g>
		<g>
			<path d="M394.861,93.035C378.665,44.412,332.762,11,281,11c-40.523,0-77.062,20.209-99.027,52.212
				c-63.15-13.494-122.268,35.581-120.953,99.78C24.335,181.693,1,219.427,1,261c0,60.654,49.346,110,110,110h50v100
				c0,16.542,13.458,30,30,30s30-13.458,30-30v-20h60v20c0,16.542,13.458,30,30,30s30-13.458,30-30V371h30
				c77.196,0,140-62.804,140-140C511,162.655,461.518,104.469,394.861,93.035z M201,471c0,5.514-4.486,10-10,10
				c-5.514,0-10-4.486-10-10V211c0-5.514,4.486-10,10-10c5.514,0,10,4.486,10,10V471z M281,331h-60v-30h60V331z M221,351h60v30h-60
				V351z M281,281h-60v-30h60V281z M221,431v-30h60v30H221z M321,471c0,5.514-4.486,10-10,10c-5.514,0-10-4.486-10-10V211
				c0-5.514,4.486-10,10-10c5.514,0,10,4.486,10,10V471z M371,351h-30V211c0-16.542-13.458-30-30-30s-30,13.458-30,30v20h-60v-20
				c0-16.542-13.458-30-30-30s-30,13.458-30,30v140h-50c-49.626,0-90-40.374-90-90c0-35.949,21.328-68.391,54.336-82.65
				c3.961-1.711,6.378-5.771,5.995-10.07C77.087,120.757,114.646,81,161,81c7.696,0,15.325,1.098,22.675,3.263
				c4.374,1.288,9.068-0.547,11.409-4.462C213.075,49.699,245.996,31,281,31c44.985,0,84.66,30.278,96.482,73.631
				c1.068,3.914,4.394,6.795,8.42,7.293C445.818,119.336,491,170.528,491,231C491,297.168,437.168,351,371,351z"/>
		</g>
	</g>
</g>
<g id="Layer_1">
</g>
</svg>
