<?xml version="1.0" encoding="iso-8859-1"?>
<!-- Generator: Adobe Illustrator 24.1.0, SVG Export Plug-In . SVG Version: 6.00 Build 0)  -->
<svg version="1.1" xmlns="http://www.w3.org/2000/svg" xmlns:xlink="http://www.w3.org/1999/xlink" x="0px" y="0px"
	 viewBox="0 0 512 512" style="enable-background:new 0 0 512 512;" xml:space="preserve">
<g id="_x33_5_Goal_x2C__Target_x2C__Arrow_x2C__Purpose_x2C__Impact">
	<g>
		<g id="XMLID_1878_">
			<polygon id="XMLID_1902_" style="fill:#D09A6F;" points="501.023,97.687 453.723,144.977 386.723,125.277 434.023,77.977 			"/>
			<polygon id="XMLID_1901_" style="fill:#E2B487;" points="414.313,10.977 434.023,77.977 386.723,125.277 367.023,58.277 			"/>
			<circle id="XMLID_1900_" style="fill:#D5E6F5;" cx="217.253" cy="294.747" r="63.77"/>
			<circle id="XMLID_1899_" style="fill:#FF7C44;" cx="217.253" cy="294.747" r="206.235"/>
			<circle id="XMLID_1898_" style="fill:#D5E6F5;" cx="217.253" cy="294.747" r="160.4"/>
			<path id="XMLID_1895_" style="fill:#FF4A57;" d="M298.263,213.737c-44.74-44.75-117.28-44.75-162.02,0
				c-44.75,44.74-44.75,117.28,0,162.02c44.74,44.75,117.28,44.75,162.02,0C343.013,331.017,343.013,258.477,298.263,213.737z
				 M217.253,358.517c-35.22,0-63.77-28.55-63.77-63.77s28.55-63.77,63.77-63.77c35.206,0,63.77,28.549,63.77,63.77
				C281.023,329.967,252.473,358.517,217.253,358.517z"/>
			<path id="XMLID_1892_" d="M64.353,447.648c-84.492-84.501-84.509-221.284-0.001-305.801l0.001-0.001
				c84.501-84.493,221.285-84.506,305.8,0c84.492,84.501,84.509,221.284,0.001,305.801
				C285.653,532.139,148.869,532.156,64.353,447.648z M78.494,155.987c-76.503,76.513-76.503,201.006,0,277.519
				c76.5,76.49,200.994,76.513,277.518-0.001c76.501-76.512,76.501-201.005-0.001-277.518
				C279.498,79.484,155.004,79.485,78.494,155.987L78.494,155.987z"/>
			<path id="XMLID_1889_" d="M96.761,415.238c-66.438-66.439-66.438-174.544,0-240.983l0,0c66.44-66.438,174.545-66.438,240.983,0
				c66.438,66.439,66.438,174.544,0,240.983C271.307,481.674,163.202,481.678,96.761,415.238z M110.903,188.398
				c-58.641,58.641-58.641,154.058,0,212.698c58.627,58.627,154.044,58.654,212.698,0c58.641-58.641,58.641-154.058,0-212.698
				C264.961,129.756,169.544,129.758,110.903,188.398L110.903,188.398z"/>
			<path id="XMLID_1886_" d="M129.17,382.827c-48.688-48.677-48.695-127.477,0.002-176.163
				c48.677-48.688,127.477-48.695,176.163,0.002c48.687,48.677,48.695,127.477-0.002,176.163
				C256.656,431.516,177.857,431.524,129.17,382.827z M217.252,190.174c-57.717,0-104.572,46.775-104.572,104.573
				c0,57.779,46.776,104.572,104.572,104.572c57.779,0,104.573-46.774,104.573-104.572
				C321.825,236.967,275.051,190.174,217.252,190.174z"/>
			<path id="XMLID_1885_" d="M210.182,301.817c-3.905-3.905-3.905-10.237,0-14.143l216.77-216.77c3.906-3.904,10.236-3.904,14.143,0
				c3.905,3.905,3.905,10.237,0,14.143l-216.77,216.77C220.417,305.723,214.088,305.722,210.182,301.817z"/>
			<path id="XMLID_1882_" d="M450.901,154.57l-67-19.7c-3.262-0.959-5.813-3.511-6.772-6.772l-19.7-67
				c-1.032-3.511-0.064-7.305,2.521-9.892l47.29-47.3c2.497-2.496,6.124-3.488,9.542-2.62c3.421,0.872,6.128,3.482,7.124,6.868
				l18.171,61.768l61.768,18.171c7.267,2.138,9.614,11.3,4.248,16.666l-47.3,47.29C458.215,154.626,454.423,155.606,450.901,154.57z
				 M394.777,117.222l56.072,16.486l31.189-31.183L431.2,87.57c-3.262-0.96-5.812-3.51-6.771-6.771L409.474,29.96l-31.183,31.189
				L394.777,117.222z"/>
			<path id="XMLID_1879_" d="M217.253,368.517c-40.677,0-73.771-33.094-73.771-73.771s33.094-73.77,73.771-73.77
				c40.766,0,73.77,32.999,73.77,73.77C291.023,335.423,257.93,368.517,217.253,368.517z M217.253,240.977
				c-29.649,0-53.771,24.121-53.771,53.77c0,29.649,24.121,53.771,53.771,53.771c29.648,0,53.77-24.121,53.77-53.771
				C271.023,265.035,246.968,240.977,217.253,240.977z"/>
		</g>
	</g>
</g>
<g id="Layer_1">
</g>
</svg>
