<?xml version="1.0" encoding="iso-8859-1"?>
<!-- Generator: Adobe Illustrator 24.1.0, SVG Export Plug-In . SVG Version: 6.00 Build 0)  -->
<svg version="1.1" xmlns="http://www.w3.org/2000/svg" xmlns:xlink="http://www.w3.org/1999/xlink" x="0px" y="0px"
	 viewBox="0 0 512 512" style="enable-background:new 0 0 512 512;" xml:space="preserve">
<g id="_x31_2_x2C__Wink_x2C__emoji_x2C__smileys_x2C__reaction_x2C__feelings_x2C__emotion">
	<g>
		<g>
			<path style="fill:#FFDD33;" d="M256,11c135.31,0,245,109.69,245,245S391.31,501,256,501S11,391.31,11,256S120.69,11,256,11z"/>
			<path style="fill:#FBF3F3;" d="M144.64,293.12h222.72c0,13.02-2.23,25.51-6.34,37.12h-39.03H190.01h-39.03
				C146.87,318.63,144.64,306.14,144.64,293.12z"/>
			<path style="fill:#663D3D;" d="M322,382.83h-0.01v-52.59h39.03C353.53,351.46,339.79,369.72,322,382.83z"/>
			<path style="fill:#663D3D;" d="M190.01,330.24v52.59H190c-17.79-13.11-31.53-31.37-39.02-52.59H190.01z"/>
			<path style="fill:#FF5959;" d="M321.99,382.83v15.06c0,36.44-29.54,65.99-65.99,65.99c-18.22,0-34.72-7.39-46.66-19.33
				s-19.33-28.44-19.33-46.66v-15.06v-52.59h131.98V382.83z"/>
			<g>
				<path d="M256,1C115.068,1,1,115.049,1,256c0,140.932,114.049,255,255,255c140.932,0,255-114.049,255-255
					C511,115.068,396.951,1,256,1z M256,491C126.421,491,21,385.579,21,256S126.421,21,256,21s235,105.421,235,235
					S385.579,491,256,491z"/>
				<path d="M377.36,293.12c0-5.522-4.478-10-10-10H144.64c-5.522,0-10,4.478-10,10c0,36.484,16.305,71.292,45.37,94.627v10.143
					c0,41.993,33.993,75.99,75.99,75.99c41.901,0,75.99-34.089,75.99-75.99v-10.143c17.529-14.074,30.93-32.699,38.542-54.43
					C374.836,320.024,377.36,308.594,377.36,293.12z M356.875,303.12c-0.567,5.806-1.64,11.524-3.192,17.12H158.316
					c-1.552-5.595-2.624-11.314-3.191-17.12H356.875z M166.229,340.24h13.781v19.974
					C174.628,354.133,170.003,347.439,166.229,340.24z M256,453.88c-30.938,0-55.99-25.047-55.99-55.99V340.24h111.98v57.649
					C311.99,428.763,286.873,453.88,256,453.88z M331.99,360.215V340.24h13.782C341.998,347.438,337.373,354.132,331.99,360.215z"/>
				<path d="M303.907,206.105l49,29c4.782,2.833,10.904,1.209,13.698-3.513c2.813-4.752,1.24-10.886-3.513-13.698l-34.46-20.395
					l34.46-20.395c4.753-2.813,6.326-8.946,3.513-13.698c-2.813-4.753-8.944-6.329-13.698-3.513
					c-4.044,2.393-43.666,25.844-49.008,29.005C297.342,192.782,297.421,202.267,303.907,206.105z"/>
				<circle cx="175.636" cy="197.5" r="34"/>
			</g>
		</g>
	</g>
</g>
<g id="Layer_1">
</g>
</svg>
